<svg xmlns="http://www.w3.org/2000/svg" viewBox="0 0 1200 320" width="1200" height="320" role="img" aria-label="Three Braitenberg vehicles around a light: one turns away, one charges it, one comes to rest facing it"><g fill="none" stroke-linecap="round" stroke-linejoin="round"><path d="M610.0 147.2L617.0 147.2" stroke="#262624" stroke-width="0.5"/><path d="M608.1 153.1L613.8 157.2" stroke="#262624" stroke-width="0.5"/><path d="M603.1 156.7L605.3 163.4" stroke="#262624" stroke-width="0.5"/><path d="M596.9 156.7L594.7 163.4" stroke="#262624" stroke-width="0.5"/><path d="M591.9 153.1L586.2 157.2" stroke="#262624" stroke-width="0.5"/><path d="M590.0 147.2L583.0 147.2" stroke="#262624" stroke-width="0.5"/><path d="M591.9 141.3L586.2 137.2" stroke="#262624" stroke-width="0.5"/><path d="M596.9 137.7L594.7 131.0" stroke="#262624" stroke-width="0.5"/><path d="M603.1 137.7L605.3 131.0" stroke="#262624" stroke-width="0.5"/><path d="M608.1 141.3L613.8 137.2" stroke="#262624" stroke-width="0.5"/><circle cx="600.0" cy="147.2" r="7.0" stroke="#262624" stroke-width="0.75" fill="#ffffff"/><circle cx="600.0" cy="147.2" r="2.5" fill="#004fcc" stroke="none"/><circle cx="600.0" cy="147.2" r="44.8" stroke="#c9c7c0" stroke-width="0.5" fill="none" stroke-dasharray="1 3"/><circle cx="600.0" cy="147.2" r="89.6" stroke="#c9c7c0" stroke-width="0.5" fill="none" stroke-dasharray="1 3"/><circle cx="600.0" cy="147.2" r="134.4" stroke="#c9c7c0" stroke-width="0.5" fill="none" stroke-dasharray="1 3"/><path d="M240.0 96.0L240.7 96.2L241.4 96.4L242.1 96.5L242.8 96.7L243.5 96.9L244.2 97.1L244.9 97.3L245.6 97.4L246.3 97.6L247.0 97.8L247.7 98.0L248.4 98.2L249.1 98.3L249.8 98.5L250.5 98.7L251.2 98.9L251.9 99.1L252.6 99.3L253.3 99.5L254.0 99.6L254.7 99.8L255.4 100.0L256.1 100.2L256.8 100.4L257.5 100.6L258.3 100.8L259.0 101.0L259.7 101.2L260.4 101.4L261.1 101.6L261.8 101.7L262.6 101.9L263.3 102.1L264.0 102.3L264.7 102.5L265.4 102.7L266.1 102.9L266.9 103.1L267.6 103.3L268.3 103.5L269.0 103.7L269.8 103.9L270.5 104.1L271.2 104.3L272.0 104.5L272.7 104.8L273.4 105.0L274.1 105.2L274.9 105.4L275.6 105.6L276.3 105.8L277.1 106.0L277.8 106.2L278.5 106.4L279.3 106.6L280.0 106.9L280.8 107.1L281.5 107.3L282.2 107.5L283.0 107.7L283.7 107.9L284.5 108.2L285.2 108.4L286.0 108.6L286.7 108.8L287.5 109.1L288.2 109.3L289.0 109.5L289.7 109.7L290.5 110.0L291.2 110.2L292.0 110.4L292.7 110.7L293.5 110.9L294.3 111.1L295.0 111.4L295.8 111.6L296.5 111.8L297.3 112.1L298.1 112.3L298.8 112.6L299.6 112.8L300.4 113.1L301.1 113.3L301.9 113.6L302.7 113.8L303.4 114.1L304.2 114.3L305.0 114.6L305.8 114.8L306.5 115.1L307.3 115.3L308.1 115.6L308.9 115.9L309.6 116.1L310.4 116.4L311.2 116.7L312.0 116.9L312.8 117.2L313.6 117.5L314.4 117.8L315.1 118.0L315.9 118.3L316.7 118.6L317.5 118.9L318.3 119.2L319.1 119.4L319.9 119.7L320.7 120.0L321.5 120.3L322.3 120.6L323.1 120.9L323.9 121.2L324.7 121.5L325.5 121.8L326.3 122.1L327.1 122.4L327.9 122.8L328.7 123.1L329.5 123.4L330.4 123.7L331.2 124.0L332.0 124.4L332.8 124.7L333.6 125.0L334.4 125.4L335.3 125.7L336.1 126.0L336.9 126.4L337.7 126.7L338.5 127.1L339.4 127.4L340.2 127.8L341.0 128.1L341.8 128.5L342.7 128.9L343.5 129.2L344.3 129.6L345.1 130.0L346.0 130.4L346.8 130.8L347.6 131.2L348.5 131.6L349.3 132.0L350.2 132.4L351.0 132.8L351.8 133.2L352.7 133.6L353.5 134.0L354.3 134.5L355.2 134.9L356.0 135.3L356.9 135.8L357.7 136.2L358.5 136.7L359.4 137.1L360.2 137.6L361.1 138.1L361.9 138.5L362.7 139.0L363.6 139.5L364.4 140.0L365.3 140.5L366.1 141.0L366.9 141.5L367.8 142.0L368.6 142.6L369.4 143.1L370.3 143.6L371.1 144.2L372.0 144.7L372.8 145.3L373.6 145.9L374.4 146.5L375.3 147.0L376.1 147.6L376.9 148.2L377.7 148.9L378.5 149.5L379.4 150.1L380.2 150.7L381.0 151.4L381.8 152.1L382.6 152.7L383.4 153.4L384.2 154.1L385.0 154.8L385.7 155.5L386.5 156.2L387.3 156.9L388.0 157.7L388.8 158.4L389.6 159.2L390.3 159.9L391.0 160.7L391.8 161.5L392.5 162.3L393.2 163.1L393.9 163.9L394.6 164.8L395.3 165.6L396.0 166.5L396.6 167.3L397.3 168.2L397.9 169.1L398.6 170.0L399.2 170.9L399.8 171.8L400.4 172.7L401.0 173.7L401.6 174.6L402.1 175.6L402.6 176.5L403.2 177.5L403.7 178.5L404.2 179.5L404.7 180.5L405.1 181.5L405.6 182.5L406.0 183.5L406.4 184.6L406.8 185.6L407.2 186.6L407.6 187.7L407.9 188.7L408.3 189.8L408.6 190.9L408.9 191.9L409.2 193.0L409.4 194.1L409.7 195.2L409.9 196.2L410.1 197.3L410.3 198.4L410.5 199.5L410.6 200.6L410.8 201.7L410.9 202.8L411.0 203.8L411.1 204.9L411.2 206.0L411.2 207.1L411.2 208.2L411.3 209.3L411.3 210.3L411.3 211.4L411.3 212.5L411.2 213.6L411.2 214.6L411.1 215.7L411.0 216.8L410.9 217.8L410.8 218.9L410.7 219.9L410.6 221.0L410.4 222.0L410.3 223.0L410.1 224.1L409.9 225.1L409.8 226.1L409.6 227.1L409.3 228.1L409.1 229.1L408.9 230.1L408.7 231.1L408.4 232.1L408.2 233.1L407.9 234.1L407.6 235.1L407.3 236.0L407.0 237.0L406.7 237.9L406.4 238.9L406.1 239.8L405.8 240.8L405.5 241.7L405.1 242.6L404.8 243.6L404.5 244.5L404.1 245.4L403.7 246.3L403.4 247.2L403.0 248.1L402.6 249.0L402.3 249.9L401.9 250.8L401.5 251.6L401.1 252.5L400.7 253.4L400.3 254.2L399.9 255.1L399.5 256.0L399.1 256.8L398.6 257.6L398.2 258.5L397.8 259.3L397.4 260.1L396.9 261.0L396.5 261.8L396.1 262.6L395.6 263.4L395.2 264.2L394.7 265.0L394.3 265.8L393.8 266.6L393.4 267.4L392.9 268.2L392.5 269.0L392.0 269.7L391.5 270.5L391.1 271.3L390.6 272.0L390.1 272.8L389.7 273.6L389.2 274.3L388.7 275.1L388.3 275.8L387.8 276.6L387.3 277.3L386.8 278.0L386.3 278.8L385.9 279.5L385.4 280.2L384.9 281.0L384.4 281.7L383.9 282.4L383.4 283.1L382.9 283.8L382.5 284.5L382.0 285.2L381.5 285.9L381.0 286.6L380.5 287.3L380.0 288.0L379.5 288.7L379.0 289.4L378.5 290.1L378.0 290.8L377.5 291.4L377.0 292.1L376.5 292.8L376.0 293.5L375.5 294.1L375.0 294.8L374.5 295.5" stroke="#262624" stroke-width="0.5" fill="none" stroke-dasharray="4 3"/><path d="M225.9 78.5L257.9 86.6L251.2 112.8L219.2 104.6Z" stroke="#262624" stroke-width="0.75" fill="#ffffff"/><path d="M227.4 72.7L239.0 75.6L237.5 81.4L225.9 78.5Z" stroke="#262624" stroke-width="0.75" fill="#262624"/><path d="M219.2 104.6L230.8 107.6L229.4 113.4L217.7 110.4Z" stroke="#262624" stroke-width="0.75" fill="#262624"/><circle cx="261.1" cy="92.1" r="3.6" stroke="#262624" stroke-width="0.75" fill="#ffffff"/><circle cx="256.7" cy="109.5" r="3.6" stroke="#262624" stroke-width="0.75" fill="#ffffff"/><path d="M258.2 91.4L231.5 80.8" stroke="#262624" stroke-width="0.5" fill="none"/><path d="M253.8 108.8L225.3 105.2" stroke="#262624" stroke-width="0.5" fill="none"/><circle cx="374.5" cy="295.5" r="1.6" fill="#262624" stroke="none"/><text x="194.0" y="60.0" font-family="ui-monospace, 'IBM Plex Mono', Menlo, monospace" font-size="8.5" font-weight="500" letter-spacing="1" fill="#262624" text-anchor="start" stroke="none">2a · FEAR</text><text x="194.0" y="70.0" font-family="ui-monospace, 'IBM Plex Mono', Menlo, monospace" font-size="7" font-weight="400" letter-spacing="0.6" fill="#6b6a66" text-anchor="start" stroke="none">SAME-SIDE WIRES, EXCITATORY</text><path d="M336.0 256.0L336.7 255.6L337.4 255.1L338.2 254.7L338.9 254.2L339.6 253.8L340.3 253.4L341.1 252.9L341.8 252.5L342.5 252.1L343.3 251.6L344.0 251.2L344.7 250.7L345.5 250.3L346.2 249.9L347.0 249.4L347.7 249.0L348.5 248.5L349.2 248.1L350.0 247.7L350.8 247.2L351.5 246.8L352.3 246.3L353.0 245.9L353.8 245.4L354.6 245.0L355.4 244.6L356.1 244.1L356.9 243.7L357.7 243.2L358.5 242.8L359.3 242.4L360.1 241.9L360.9 241.5L361.7 241.0L362.5 240.6L363.3 240.1L364.1 239.7L364.9 239.2L365.7 238.8L366.5 238.4L367.3 237.9L368.1 237.5L369.0 237.0L369.8 236.6L370.6 236.1L371.5 235.7L372.3 235.2L373.1 234.8L374.0 234.3L374.8 233.9L375.7 233.4L376.5 233.0L377.4 232.5L378.3 232.1L379.1 231.6L380.0 231.2L380.9 230.7L381.7 230.3L382.6 229.8L383.5 229.4L384.4 228.9L385.3 228.5L386.2 228.0L387.1 227.6L388.0 227.1L388.9 226.7L389.8 226.2L390.7 225.7L391.7 225.3L392.6 224.8L393.5 224.4L394.5 223.9L395.4 223.5L396.3 223.0L397.3 222.5L398.2 222.1L399.2 221.6L400.2 221.2L401.1 220.7L402.1 220.2L403.1 219.8L404.1 219.3L405.1 218.8L406.1 218.4L407.1 217.9L408.1 217.4L409.1 217.0L410.1 216.5L411.1 216.0L412.2 215.5L413.2 215.1L414.3 214.6L415.3 214.1L416.4 213.6L417.4 213.2L418.5 212.7L419.6 212.2L420.7 211.7L421.8 211.2L422.9 210.8L424.0 210.3L425.1 209.8L426.2 209.3L427.3 208.8L428.5 208.3L429.6 207.8L430.8 207.3L431.9 206.8L433.1 206.3L434.3 205.8L435.5 205.3L436.7 204.8L437.9 204.3L439.1 203.8L440.4 203.3L441.6 202.8L442.8 202.3L444.1 201.8L445.4 201.3L446.7 200.7L448.0 200.2L449.3 199.7L450.6 199.2L451.9 198.6L453.3 198.1L454.6 197.6L456.0 197.0L457.4 196.5L458.8 195.9L460.2 195.4L461.6 194.8L463.1 194.3L464.5 193.7L466.0 193.2L467.5 192.6L469.0 192.0L470.5 191.4L472.1 190.9L473.6 190.3L475.2 189.7L476.8 189.1L478.5 188.5L480.1 187.9L481.8 187.3L483.5 186.6L485.2 186.0L486.9 185.4L488.7 184.7L490.5 184.1L492.3 183.4L494.2 182.8L496.0 182.1L498.0 181.4L499.9 180.7L501.9 180.0L503.9 179.3L505.9 178.6L508.0 177.9L510.1 177.1L512.3 176.4L514.5 175.6L516.7 174.8L519.0 174.1L521.4 173.3L523.7 172.4L526.2 171.6L528.7 170.8L531.2 169.9L533.8 169.0L536.4 168.1L539.1 167.2L541.9 166.3L544.7 165.3L547.6 164.3L550.6 163.4L553.6 162.4L556.7 161.3L559.8 160.3L563.0 159.2L566.3 158.1L569.6 157.0L572.9 155.9L576.3 154.8L579.8 153.7L583.2 152.5L586.7 151.4L590.2 150.2L593.7 149.1L597.2 147.9L600.7 146.8L604.2 145.7L607.6 144.6L611.0 143.4L614.3 142.4L617.6 141.3L620.9 140.2L624.1 139.2L627.2 138.2L630.3 137.2L633.3 136.2L636.2 135.3L639.1 134.3L641.9 133.4L644.7 132.5L647.4 131.7L650.0 130.8L652.6 130.0L655.1 129.2L657.6 128.4L660.0 127.6L662.4 126.8L664.7 126.1L667.0 125.4L669.2 124.7L671.4 124.0L673.6 123.3L675.7 122.6L677.8 122.0L679.8 121.3L681.8 120.7L683.8 120.0L685.7 119.4L687.6 118.8L689.5 118.2L691.4 117.7L693.2 117.1L695.0 116.5L696.8 116.0L698.5 115.4L700.2 114.9L701.9 114.3L703.6 113.8L705.3 113.3L706.9 112.8L708.5 112.3L710.1 111.8L711.7 111.3L713.3 110.8L714.8 110.3L716.3 109.9L717.9 109.4L719.4 108.9L720.8 108.5L722.3 108.0L723.7 107.6L725.2 107.2L726.6 106.7L728.0 106.3L729.4 105.9L730.8 105.4L732.2 105.0L733.5 104.6L734.9 104.2L736.2 103.8L737.5 103.4L738.8 103.0L740.1 102.6L741.4 102.2L742.7 101.8L744.0 101.4L745.3 101.1L746.5 100.7L747.7 100.3L749.0 99.9L750.2 99.6L751.4 99.2L752.6 98.8L753.8 98.5L755.0 98.1L756.2 97.8L757.4 97.4L758.6 97.1L759.7 96.7L760.9 96.4L762.0 96.1L763.2 95.7L764.3 95.4L765.5 95.0L766.6 94.7L767.7 94.4L768.8 94.1L769.9 93.7L771.0 93.4L772.1 93.1L773.2 92.8L774.3 92.5L775.4 92.1L776.4 91.8L777.5 91.5L778.6 91.2L779.6 90.9L780.7 90.6L781.7 90.3L782.7 90.0L783.8 89.7L784.8 89.4L785.8 89.1L786.9 88.8L787.9 88.5L788.9 88.2L789.9 87.9L790.9 87.7L791.9 87.4L792.9 87.1L793.9 86.8L794.9 86.5L795.9 86.2L796.8 86.0L797.8 85.7L798.8 85.4L799.8 85.1L800.7 84.9L801.7 84.6L802.6 84.3L803.6 84.0L804.5 83.8L805.5 83.5L806.4 83.2L807.4 83.0L808.3 82.7L809.2 82.5L810.2 82.2L811.1 81.9L812.0 81.7L812.9 81.4L813.9 81.2L814.8 80.9L815.7 80.7L816.6 80.4L817.5 80.2L818.4 79.9L819.3 79.7L820.2 79.4L821.1 79.2L822.0 78.9L822.9 78.7L823.8 78.4L824.7 78.2L825.5 77.9L826.4 77.7L827.3 77.4L828.2 77.2L829.1 77.0L829.9 76.7L830.8 76.5L831.7 76.3L832.5 76.0L833.4 75.8L834.2 75.6L835.1 75.3L836.0 75.1L836.8 74.9L837.7 74.6L838.5 74.4L839.3 74.2L840.2 73.9L841.0 73.7L841.9 73.5L842.7 73.3L843.5 73.0L844.4 72.8L845.2 72.6L846.0 72.4L846.9 72.1L847.7 71.9L848.5 71.7L849.3 71.5L850.2 71.3L851.0 71.0L851.8 70.8L852.6 70.6L853.4 70.4L854.2 70.2L855.0 70.0L855.8 69.7L856.7 69.5L857.5 69.3L858.3 69.1L859.1 68.9L859.9 68.7L860.7 68.5L861.5 68.3L862.3 68.1L863.0 67.8L863.8 67.6L864.6 67.4L865.4 67.2L866.2 67.0L867.0 66.8L867.8 66.6L868.6 66.4L869.3 66.2L870.1 66.0L870.9 65.8L871.7 65.6L872.4 65.4L873.2 65.2L874.0 65.0L874.8 64.8L875.5 64.6L876.3 64.4L877.1 64.2L877.8 64.0L878.6 63.8L879.4 63.6L880.1 63.4L880.9 63.2L881.6 63.0L882.4 62.8L883.2 62.6L883.9 62.4L884.7 62.2L885.4 62.0L886.2 61.8L886.9 61.6L887.7 61.5L888.4 61.3L889.2 61.1L889.9 60.9L890.7 60.7" stroke="#004fcc" stroke-width="0.5" fill="none" stroke-dasharray="4 3"/><path d="M313.6 253.9L341.7 236.7L355.8 259.7L327.7 276.9Z" stroke="#262624" stroke-width="0.75" fill="#ffffff"/><path d="M310.5 248.8L320.7 242.5L323.8 247.6L313.6 253.9Z" stroke="#262624" stroke-width="0.75" fill="#262624"/><path d="M327.7 276.9L337.9 270.6L341.1 275.8L330.8 282.0Z" stroke="#262624" stroke-width="0.75" fill="#262624"/><circle cx="347.9" cy="238.1" r="3.6" stroke="#262624" stroke-width="0.75" fill="#ffffff"/><circle cx="357.3" cy="253.5" r="3.6" stroke="#262624" stroke-width="0.75" fill="#ffffff"/><path d="M345.4 239.7L332.4 273.0" stroke="#262624" stroke-width="0.5" fill="none"/><path d="M354.8 255.0L319.2 251.5" stroke="#262624" stroke-width="0.5" fill="none"/><circle cx="890.7" cy="60.7" r="1.6" fill="#262624" stroke="none"/><text x="290.0" y="220.0" font-family="ui-monospace, 'IBM Plex Mono', Menlo, monospace" font-size="8.5" font-weight="500" letter-spacing="1" fill="#262624" text-anchor="start" stroke="none">2b · AGGRESSION</text><text x="290.0" y="230.0" font-family="ui-monospace, 'IBM Plex Mono', Menlo, monospace" font-size="7" font-weight="400" letter-spacing="0.6" fill="#6b6a66" text-anchor="start" stroke="none">CROSSED WIRES, EXCITATORY</text><path d="M984.0 64.0L981.5 65.5L979.0 67.0L976.4 68.5L973.9 70.0L971.4 71.5L968.9 73.0L966.4 74.5L963.9 75.9L961.3 77.4L958.8 78.9L956.3 80.3L953.8 81.8L951.3 83.2L948.8 84.6L946.3 86.1L943.8 87.5L941.3 88.9L938.8 90.3L936.3 91.7L933.8 93.1L931.3 94.5L928.8 95.8L926.3 97.2L923.8 98.6L921.3 99.9L918.8 101.3L916.3 102.6L913.8 103.9L911.3 105.2L908.9 106.5L906.4 107.8L903.9 109.1L901.4 110.4L898.9 111.6L896.5 112.9L894.0 114.1L891.5 115.3L889.1 116.5L886.6 117.7L884.1 118.9L881.7 120.1L879.2 121.3L876.8 122.4L874.3 123.6L871.9 124.7L869.4 125.8L867.0 126.9L864.6 128.0L862.1 129.1L859.7 130.2L857.3 131.2L854.9 132.2L852.5 133.2L850.1 134.2L847.7 135.2L845.3 136.2L842.9 137.1L840.5 138.1L838.1 139.0L835.7 139.9L833.3 140.8L831.0 141.6L828.6 142.5L826.3 143.3L823.9 144.1L821.6 144.9L819.3 145.7L817.0 146.5L814.7 147.2L812.4 147.9L810.1 148.6L807.8 149.3L805.5 149.9L803.3 150.6L801.0 151.2L798.8 151.8L796.5 152.3L794.3 152.9L792.1 153.4L790.0 153.9L787.8 154.4L785.6 154.9L783.5 155.4L781.4 155.8L779.2 156.2L777.2 156.6L775.1 157.0L773.0 157.3L771.0 157.6L769.0 158.0L766.9 158.2L765.0 158.5L763.0 158.8L761.1 159.0L759.1 159.2L757.2 159.4L755.4 159.6L753.5 159.8L751.7 159.9L749.8 160.0L748.1 160.2L746.3 160.3L744.6 160.3L742.8 160.4L741.2 160.5L739.5 160.5L737.8 160.6L736.2 160.6L734.6 160.6L733.1 160.6L731.5 160.6L730.0 160.6L728.6 160.6L727.1 160.5L725.7 160.5L724.3 160.5L722.9 160.4L721.5 160.4L720.2 160.3L718.9 160.2L717.6 160.2L716.4 160.1L715.2 160.0L714.0 159.9L712.8 159.9L711.7 159.8L710.5 159.7L709.4 159.6L708.4 159.5L707.3 159.4L706.3 159.3L705.3 159.3L704.3 159.2L703.4 159.1L702.5 159.0L701.6 158.9L700.7 158.8L699.8 158.7L699.0 158.6L698.1 158.6L697.3 158.5L696.6 158.4L695.8 158.3L695.1 158.2L694.3 158.2L693.6 158.1L693.0 158.0L692.3 157.9L691.7 157.9L691.0 157.8L690.4 157.7L689.8 157.7L689.2 157.6L688.7 157.5L688.1 157.5L687.6 157.4L687.1 157.3L686.6 157.3L686.1 157.2L685.6 157.2L685.1 157.1L684.7 157.1L684.2 157.0L683.8 157.0L683.4 156.9L683.0 156.9L682.6 156.8L682.2 156.8L681.9 156.7L681.5 156.7L681.1 156.7L680.8 156.6L680.5 156.6L680.2 156.6L679.9 156.5L679.6 156.5L679.3 156.4L679.0 156.4L678.7 156.4L678.4 156.4L678.2 156.3L677.9 156.3L677.7 156.3L677.4 156.2L677.2 156.2L677.0 156.2L676.8 156.2L676.6 156.1L676.4 156.1L676.2 156.1L676.0 156.1L675.8 156.0L675.6 156.0L675.4 156.0L675.3 156.0L675.1 156.0L674.9 155.9L674.8 155.9L674.6 155.9L674.5 155.9L674.3 155.9L674.2 155.9L674.1 155.8L673.9 155.8L673.8 155.8L673.7 155.8L673.6 155.8L673.5 155.8L673.4 155.8L673.2 155.7L673.1 155.7L673.0 155.7L672.9 155.7L672.8 155.7L672.8 155.7L672.7 155.7L672.6 155.7L672.5 155.7L672.4 155.6L672.3 155.6" stroke="#262624" stroke-width="0.5" fill="none" stroke-dasharray="4 3"/><path d="M1006.4 66.3L978.1 83.3L964.2 60.2L992.5 43.2Z" stroke="#262624" stroke-width="0.75" fill="#ffffff"/><path d="M1009.5 71.4L999.2 77.6L996.1 72.5L1006.4 66.3Z" stroke="#262624" stroke-width="0.75" fill="#262624"/><path d="M992.5 43.2L982.2 49.3L979.1 44.2L989.4 38.0Z" stroke="#262624" stroke-width="0.75" fill="#262624"/><circle cx="971.9" cy="81.8" r="3.6" stroke="#262624" stroke-width="0.75" fill="#ffffff"/><circle cx="962.7" cy="66.3" r="3.6" stroke="#262624" stroke-width="0.75" fill="#ffffff"/><path d="M974.5 80.2L1000.8 68.6" stroke="#004fcc" stroke-width="0.5" fill="none" stroke-dasharray="2 1.5"/><path d="M965.2 64.8L987.8 47.0" stroke="#004fcc" stroke-width="0.5" fill="none" stroke-dasharray="2 1.5"/><circle cx="672.3" cy="155.6" r="1.6" fill="#262624" stroke="none"/><text x="938.0" y="28.0" font-family="ui-monospace, 'IBM Plex Mono', Menlo, monospace" font-size="8.5" font-weight="500" letter-spacing="1" fill="#262624" text-anchor="start" stroke="none">3a · LOVE</text><text x="938.0" y="38.0" font-family="ui-monospace, 'IBM Plex Mono', Menlo, monospace" font-size="7" font-weight="400" letter-spacing="0.6" fill="#6b6a66" text-anchor="start" stroke="none">SAME-SIDE WIRES, INHIBITORY</text><path d="M670.0 87.2L600.0 147.2" stroke="#262624" stroke-width="0.5"/><circle cx="600.0" cy="147.2" r="1.6" fill="#262624" stroke="none"/><circle cx="670.0" cy="87.2" r="7.5" stroke="#262624" stroke-width="0.75" fill="#ffffff"/><text x="670.0" y="90.2" font-family="ui-monospace, 'IBM Plex Mono', Menlo, monospace" font-size="8.5" font-weight="500" letter-spacing="0" fill="#262624" text-anchor="middle" stroke="none">1</text><text x="681.0" y="90.2" font-family="ui-monospace, 'IBM Plex Mono', Menlo, monospace" font-size="8.5" font-weight="400" letter-spacing="0.6" fill="#262624" text-anchor="start" stroke="none">LIGHT SOURCE</text><rect x="6.0" y="6.0" width="1188.0" height="308.0" stroke="#c9c7c0" stroke-width="0.5" fill="none"/><path d="M6.0 6.0L16.0 6.0" stroke="#262624" stroke-width="0.75"/><path d="M6.0 6.0L6.0 16.0" stroke="#262624" stroke-width="0.75"/><path d="M1194.0 6.0L1184.0 6.0" stroke="#262624" stroke-width="0.75"/><path d="M1194.0 6.0L1194.0 16.0" stroke="#262624" stroke-width="0.75"/><path d="M6.0 314.0L16.0 314.0" stroke="#262624" stroke-width="0.75"/><path d="M6.0 314.0L6.0 304.0" stroke="#262624" stroke-width="0.75"/><path d="M1194.0 314.0L1184.0 314.0" stroke="#262624" stroke-width="0.75"/><path d="M1194.0 314.0L1194.0 304.0" stroke="#262624" stroke-width="0.75"/><rect x="956.0" y="298.0" width="238.0" height="16.0" stroke="#262624" stroke-width="0.5" fill="#ffffff"/><path d="M1010.0 298.0L1010.0 314.0" stroke="#262624" stroke-width="0.5"/><path d="M1156.0 298.0L1156.0 314.0" stroke="#262624" stroke-width="0.5"/><text x="962.0" y="309.0" font-family="ui-monospace, 'IBM Plex Mono', Menlo, monospace" font-size="7.5" font-weight="500" letter-spacing="0.6" fill="#262624" text-anchor="start" stroke="none">FIG 09</text><text x="1016.0" y="309.0" font-family="ui-monospace, 'IBM Plex Mono', Menlo, monospace" font-size="7.5" font-weight="400" letter-spacing="0.6" fill="#262624" text-anchor="start" stroke="none">BRAITENBERG VEHICLES</text><text x="1162.0" y="309.0" font-family="ui-monospace, 'IBM Plex Mono', Menlo, monospace" font-size="7.5" font-weight="400" letter-spacing="0.6" fill="#6b6a66" text-anchor="start" stroke="none">NTS</text></g></svg>
