<svg xmlns="http://www.w3.org/2000/svg" viewBox="0 0 1200 180" width="1200" height="180" role="img" aria-label="An append-only log: numbered lines, one of them highlighted"><g fill="none" stroke-linecap="round" stroke-linejoin="round"><text x="0" y="18" font-family="ui-monospace, Menlo, monospace" font-size="9" fill="#c9c7c0">0000</text><path d="M34 14H636.7" stroke="#262624" stroke-width="1.2"/><text x="0" y="32" font-family="ui-monospace, Menlo, monospace" font-size="9" fill="#c9c7c0">0001</text><path d="M34 28H449.8" stroke="#262624" stroke-width="1.2"/><text x="0" y="46" font-family="ui-monospace, Menlo, monospace" font-size="9" fill="#c9c7c0">0002</text><path d="M34 42H373.7" stroke="#262624" stroke-width="1.2"/><text x="0" y="60" font-family="ui-monospace, Menlo, monospace" font-size="9" fill="#c9c7c0">0003</text><path d="M34 56H887.4" stroke="#262624" stroke-width="1.2"/><path d="M893.4 56h33.3" stroke="#c9c7c0" stroke-width="1"/><text x="0" y="74" font-family="ui-monospace, Menlo, monospace" font-size="9" fill="#c9c7c0">0004</text><path d="M34 70H725.2" stroke="#262624" stroke-width="1.2"/><path d="M731.2 70h22.7" stroke="#c9c7c0" stroke-width="1"/><text x="0" y="88" font-family="ui-monospace, Menlo, monospace" font-size="9" fill="#c9c7c0">0005</text><path d="M34 84H775.2" stroke="#262624" stroke-width="1.2"/><text x="0" y="102" font-family="ui-monospace, Menlo, monospace" font-size="9" fill="#c9c7c0">0006</text><path d="M34 98H787.6" stroke="#262624" stroke-width="1.2"/><path d="M793.6 98h14.3" stroke="#c9c7c0" stroke-width="1"/><text x="0" y="116" font-family="ui-monospace, Menlo, monospace" font-size="9" fill="#c9c7c0">0007</text><path d="M34 112H433.9" stroke="#004fcc" stroke-width="2"/><text x="0" y="130" font-family="ui-monospace, Menlo, monospace" font-size="9" fill="#c9c7c0">0008</text><path d="M34 126H902.1" stroke="#262624" stroke-width="1.2"/><text x="0" y="144" font-family="ui-monospace, Menlo, monospace" font-size="9" fill="#c9c7c0">0009</text><path d="M34 140H815.9" stroke="#262624" stroke-width="1.2"/><text x="0" y="158" font-family="ui-monospace, Menlo, monospace" font-size="9" fill="#c9c7c0">0010</text><path d="M34 154H799.8" stroke="#262624" stroke-width="1.2"/><path d="M805.8 154h17.5" stroke="#c9c7c0" stroke-width="1"/><text x="0" y="172" font-family="ui-monospace, Menlo, monospace" font-size="9" fill="#c9c7c0">0011</text><path d="M34 168H758.4" stroke="#262624" stroke-width="1.2"/></g></svg>
