<svg xmlns="http://www.w3.org/2000/svg" viewBox="0 0 1000 360" width="1000" height="360" role="img" aria-label="The hardness map in plan: a hatched hard core, a ring of soft norms, free work outside"><defs><pattern id="h0" width="4" height="4" patternUnits="userSpaceOnUse" patternTransform="rotate(45)"><line x1="0" y1="0" x2="0" y2="4" stroke="#262624" stroke-width="0.35"/></pattern></defs><g fill="none" stroke-linecap="round" stroke-linejoin="round"><ellipse cx="500.0" cy="174.0" rx="332.6" ry="158.4" stroke="#c9c7c0" stroke-width="0.5" fill="none" stroke-dasharray="2 4"/><ellipse cx="500.0" cy="174.0" rx="231.7" ry="118.8" stroke="#262624" stroke-width="0.75" fill="none"/><ellipse cx="500.0" cy="174.0" rx="180.0" ry="72.0" stroke="#262624" stroke-width="1.8" fill="#ffffff"/><ellipse cx="500.0" cy="174.0" rx="174.0" ry="66.0" stroke="none" fill="url(#h0)" opacity=".35"/><path d="M151.4 174.0L848.6 174.0" stroke="#6b6a66" stroke-width="0.5" stroke-dasharray="14 3 2 3"/><path d="M500.0 5.6L500.0 342.4" stroke="#6b6a66" stroke-width="0.5" stroke-dasharray="14 3 2 3"/><circle cx="767.1" cy="145.1" r="1.3" fill="#262624" stroke="none" opacity="0.6"/><circle cx="475.4" cy="37.9" r="1.3" fill="#262624" stroke="none" opacity="0.6"/><circle cx="772.8" cy="162.5" r="1.3" fill="#262624" stroke="none" opacity="0.6"/><circle cx="720.4" cy="72.4" r="1.3" fill="#262624" stroke="none" opacity="0.6"/><circle cx="698.2" cy="53.1" r="1.3" fill="#262624" stroke="none" opacity="0.6"/><circle cx="518.6" cy="314.2" r="1.3" fill="#262624" stroke="none" opacity="0.6"/><circle cx="425.9" cy="39.5" r="1.3" fill="#262624" stroke="none" opacity="0.6"/><circle cx="476.3" cy="311.7" r="1.3" fill="#262624" stroke="none" opacity="0.6"/><circle cx="695.5" cy="55.5" r="1.3" fill="#262624" stroke="none" opacity="0.6"/><circle cx="583.4" cy="42.1" r="1.3" fill="#262624" stroke="none" opacity="0.6"/><circle cx="763.3" cy="108.4" r="1.3" fill="#262624" stroke="none" opacity="0.6"/><circle cx="534.2" cy="316.1" r="1.3" fill="#262624" stroke="none" opacity="0.6"/><circle cx="257.8" cy="239.1" r="1.3" fill="#262624" stroke="none" opacity="0.6"/><circle cx="234.5" cy="118.3" r="1.3" fill="#262624" stroke="none" opacity="0.6"/><circle cx="215.3" cy="109.1" r="1.3" fill="#262624" stroke="none" opacity="0.6"/><circle cx="322.5" cy="61.5" r="1.3" fill="#262624" stroke="none" opacity="0.6"/><circle cx="707.6" cy="57.0" r="1.3" fill="#262624" stroke="none" opacity="0.6"/><circle cx="185.7" cy="183.4" r="1.3" fill="#262624" stroke="none" opacity="0.6"/><circle cx="777.3" cy="190.0" r="1.3" fill="#262624" stroke="none" opacity="0.6"/><circle cx="647.7" cy="309.5" r="1.3" fill="#262624" stroke="none" opacity="0.6"/><circle cx="388.6" cy="35.5" r="1.3" fill="#262624" stroke="none" opacity="0.6"/><circle cx="432.7" cy="314.1" r="1.3" fill="#262624" stroke="none" opacity="0.6"/><circle cx="710.5" cy="85.8" r="1.3" fill="#262624" stroke="none" opacity="0.6"/><circle cx="705.0" cy="263.5" r="1.3" fill="#262624" stroke="none" opacity="0.6"/><circle cx="195.7" cy="203.6" r="1.3" fill="#262624" stroke="none" opacity="0.6"/><circle cx="226.4" cy="126.0" r="1.3" fill="#262624" stroke="none" opacity="0.6"/><circle cx="219.0" cy="172.2" r="1.3" fill="#262624" stroke="none" opacity="0.6"/><circle cx="773.5" cy="128.9" r="1.3" fill="#262624" stroke="none" opacity="0.6"/><circle cx="526.5" cy="313.3" r="1.3" fill="#262624" stroke="none" opacity="0.6"/><circle cx="630.3" cy="49.2" r="1.3" fill="#262624" stroke="none" opacity="0.6"/><circle cx="738.0" cy="94.9" r="1.3" fill="#262624" stroke="none" opacity="0.6"/><circle cx="242.1" cy="222.4" r="1.3" fill="#262624" stroke="none" opacity="0.6"/><circle cx="757.7" cy="91.4" r="1.3" fill="#262624" stroke="none" opacity="0.6"/><circle cx="225.4" cy="195.7" r="1.3" fill="#262624" stroke="none" opacity="0.6"/><circle cx="210.6" cy="180.7" r="1.3" fill="#262624" stroke="none" opacity="0.6"/><circle cx="668.3" cy="44.6" r="1.3" fill="#262624" stroke="none" opacity="0.6"/><circle cx="484.0" cy="34.8" r="1.3" fill="#262624" stroke="none" opacity="0.6"/><circle cx="802.1" cy="213.2" r="1.3" fill="#262624" stroke="none" opacity="0.6"/><circle cx="763.2" cy="127.3" r="1.3" fill="#262624" stroke="none" opacity="0.6"/><circle cx="205.6" cy="174.1" r="1.3" fill="#262624" stroke="none" opacity="0.6"/><circle cx="772.0" cy="154.2" r="1.3" fill="#262624" stroke="none" opacity="0.6"/><circle cx="787.4" cy="231.2" r="1.3" fill="#262624" stroke="none" opacity="0.6"/><circle cx="234.1" cy="113.4" r="1.3" fill="#262624" stroke="none" opacity="0.6"/><circle cx="551.9" cy="30.2" r="1.3" fill="#262624" stroke="none" opacity="0.6"/><circle cx="399.4" cy="44.3" r="1.3" fill="#262624" stroke="none" opacity="0.6"/><circle cx="735.4" cy="241.9" r="1.3" fill="#262624" stroke="none" opacity="0.6"/><circle cx="349.5" cy="301.6" r="1.3" fill="#262624" stroke="none" opacity="0.6"/><circle cx="290.0" cy="270.5" r="1.3" fill="#262624" stroke="none" opacity="0.6"/><circle cx="276.3" cy="73.4" r="1.3" fill="#262624" stroke="none" opacity="0.6"/><circle cx="263.2" cy="95.0" r="1.3" fill="#262624" stroke="none" opacity="0.6"/><circle cx="634.4" cy="38.5" r="1.3" fill="#262624" stroke="none" opacity="0.6"/><circle cx="745.2" cy="79.4" r="1.3" fill="#262624" stroke="none" opacity="0.6"/><circle cx="801.3" cy="187.9" r="1.3" fill="#262624" stroke="none" opacity="0.6"/><circle cx="332.2" cy="289.5" r="1.3" fill="#262624" stroke="none" opacity="0.6"/><circle cx="222.4" cy="158.5" r="1.3" fill="#262624" stroke="none" opacity="0.6"/><circle cx="501.1" cy="328.5" r="1.3" fill="#262624" stroke="none" opacity="0.6"/><circle cx="347.2" cy="307.5" r="1.3" fill="#262624" stroke="none" opacity="0.6"/><circle cx="385.0" cy="45.7" r="1.3" fill="#262624" stroke="none" opacity="0.6"/><circle cx="374.5" cy="306.8" r="1.3" fill="#262624" stroke="none" opacity="0.6"/><circle cx="414.6" cy="39.8" r="1.3" fill="#262624" stroke="none" opacity="0.6"/><circle cx="761.6" cy="223.7" r="1.3" fill="#262624" stroke="none" opacity="0.6"/><circle cx="695.6" cy="59.6" r="1.3" fill="#262624" stroke="none" opacity="0.6"/><circle cx="741.0" cy="269.1" r="1.3" fill="#262624" stroke="none" opacity="0.6"/><circle cx="244.2" cy="109.6" r="1.3" fill="#262624" stroke="none" opacity="0.6"/><circle cx="719.1" cy="90.0" r="1.3" fill="#262624" stroke="none" opacity="0.6"/><circle cx="735.1" cy="255.4" r="1.3" fill="#262624" stroke="none" opacity="0.6"/><circle cx="477.1" cy="29.4" r="1.3" fill="#262624" stroke="none" opacity="0.6"/><circle cx="188.3" cy="189.1" r="1.3" fill="#262624" stroke="none" opacity="0.6"/><circle cx="257.9" cy="266.9" r="1.3" fill="#262624" stroke="none" opacity="0.6"/><circle cx="807.6" cy="178.3" r="1.3" fill="#262624" stroke="none" opacity="0.6"/><circle cx="669.0" cy="296.1" r="1.3" fill="#262624" stroke="none" opacity="0.6"/><circle cx="659.5" cy="48.8" r="1.3" fill="#262624" stroke="none" opacity="0.6"/><circle cx="238.3" cy="105.0" r="1.3" fill="#262624" stroke="none" opacity="0.6"/><circle cx="502.6" cy="32.8" r="1.3" fill="#262624" stroke="none" opacity="0.6"/><circle cx="530.7" cy="318.5" r="1.3" fill="#262624" stroke="none" opacity="0.6"/><circle cx="224.1" cy="156.7" r="1.3" fill="#262624" stroke="none" opacity="0.6"/><circle cx="211.5" cy="147.1" r="1.3" fill="#262624" stroke="none" opacity="0.6"/><circle cx="668.8" cy="297.6" r="1.3" fill="#262624" stroke="none" opacity="0.6"/><circle cx="551.3" cy="35.7" r="1.3" fill="#262624" stroke="none" opacity="0.6"/><circle cx="710.1" cy="58.4" r="1.3" fill="#262624" stroke="none" opacity="0.6"/><text x="500.0" y="141.6" font-family="ui-monospace, 'IBM Plex Mono', Menlo, monospace" font-size="10" font-weight="600" letter-spacing="2" fill="#004fcc" text-anchor="middle" stroke="none">HARD CORE</text><text x="402.8" y="172.2" font-family="ui-monospace, 'IBM Plex Mono', Menlo, monospace" font-size="7.5" font-weight="400" letter-spacing="0.8" fill="#262624" text-anchor="middle" stroke="none">WHO MAY MOVE MONEY</text><text x="597.2" y="172.2" font-family="ui-monospace, 'IBM Plex Mono', Menlo, monospace" font-size="7.5" font-weight="400" letter-spacing="0.8" fill="#262624" text-anchor="middle" stroke="none">WHAT DATA LEAVES</text><text x="402.8" y="195.6" font-family="ui-monospace, 'IBM Plex Mono', Menlo, monospace" font-size="7.5" font-weight="400" letter-spacing="0.8" fill="#262624" text-anchor="middle" stroke="none">CHECKS ON EVERY OUTPUT</text><text x="597.2" y="195.6" font-family="ui-monospace, 'IBM Plex Mono', Menlo, monospace" font-size="7.5" font-weight="400" letter-spacing="0.8" fill="#262624" text-anchor="middle" stroke="none">THE SHARED FIELD LOG</text><text x="500.0" y="78.6" font-family="ui-monospace, 'IBM Plex Mono', Menlo, monospace" font-size="8" font-weight="500" letter-spacing="1" fill="#6b6a66" text-anchor="middle" stroke="none">SOFT · WEEKLY PLANNING</text><text x="500.0" y="318.0" font-family="ui-monospace, 'IBM Plex Mono', Menlo, monospace" font-size="8" font-weight="500" letter-spacing="1" fill="#6b6a66" text-anchor="middle" stroke="none">FREE · HOW EACH TEAM OR AGENT DOES ITS OWN WORK</text><path d="M680.0 166.4L680.0 120.6" stroke="#262624" stroke-width="0.5"/><path d="M731.7 166.4L731.7 120.6" stroke="#262624" stroke-width="0.5"/><path d="M680.0 123.6L731.7 123.6" stroke="#262624" stroke-width="0.5"/><path d="M676.5 127.1L683.5 120.1" stroke="#262624" stroke-width="0.75"/><path d="M728.2 127.1L735.2 120.1" stroke="#262624" stroke-width="0.75"/><text x="705.8" y="119.6" font-family="ui-monospace, 'IBM Plex Mono', Menlo, monospace" font-size="8.5" letter-spacing=".6" fill="#262624" text-anchor="middle" stroke="none" transform="rotate(0.0 705.8 123.6)">SOFT</text><path d="M731.7 166.4L731.7 120.6" stroke="#262624" stroke-width="0.5"/><path d="M832.6 166.4L832.6 120.6" stroke="#262624" stroke-width="0.5"/><path d="M731.7 123.6L832.6 123.6" stroke="#262624" stroke-width="0.5"/><path d="M728.2 127.1L735.2 120.1" stroke="#262624" stroke-width="0.75"/><path d="M829.1 127.1L836.1 120.1" stroke="#262624" stroke-width="0.75"/><text x="782.2" y="119.6" font-family="ui-monospace, 'IBM Plex Mono', Menlo, monospace" font-size="8.5" letter-spacing=".6" fill="#262624" text-anchor="middle" stroke="none" transform="rotate(0.0 782.2 123.6)">FREE</text><rect x="6.0" y="6.0" width="988.0" height="348.0" stroke="#c9c7c0" stroke-width="0.5" fill="none"/><path d="M6.0 6.0L16.0 6.0" stroke="#262624" stroke-width="0.75"/><path d="M6.0 6.0L6.0 16.0" stroke="#262624" stroke-width="0.75"/><path d="M994.0 6.0L984.0 6.0" stroke="#262624" stroke-width="0.75"/><path d="M994.0 6.0L994.0 16.0" stroke="#262624" stroke-width="0.75"/><path d="M6.0 354.0L16.0 354.0" stroke="#262624" stroke-width="0.75"/><path d="M6.0 354.0L6.0 344.0" stroke="#262624" stroke-width="0.75"/><path d="M994.0 354.0L984.0 354.0" stroke="#262624" stroke-width="0.75"/><path d="M994.0 354.0L994.0 344.0" stroke="#262624" stroke-width="0.75"/><rect x="812.0" y="338.0" width="182.0" height="16.0" stroke="#262624" stroke-width="0.5" fill="#ffffff"/><path d="M866.0 338.0L866.0 354.0" stroke="#262624" stroke-width="0.5"/><path d="M956.0 338.0L956.0 354.0" stroke="#262624" stroke-width="0.5"/><text x="818.0" y="349.0" font-family="ui-monospace, 'IBM Plex Mono', Menlo, monospace" font-size="7.5" font-weight="500" letter-spacing="0.6" fill="#262624" text-anchor="start" stroke="none">FIG 11</text><text x="872.0" y="349.0" font-family="ui-monospace, 'IBM Plex Mono', Menlo, monospace" font-size="7.5" font-weight="400" letter-spacing="0.6" fill="#262624" text-anchor="start" stroke="none">HARDNESS MAP</text><text x="962.0" y="349.0" font-family="ui-monospace, 'IBM Plex Mono', Menlo, monospace" font-size="7.5" font-weight="400" letter-spacing="0.6" fill="#6b6a66" text-anchor="start" stroke="none">NTS</text></g></svg>
