<svg xmlns="http://www.w3.org/2000/svg" viewBox="0 0 640 120" width="640" height="120" role="img" aria-label="A crack running across an orderly grid of blocks and branching as it goes"><g fill="none" stroke-linecap="round" stroke-linejoin="round"><rect x="4" y="4" width="20" height="20" stroke="#c9c7c0" stroke-width="1"/><rect x="4" y="32" width="20" height="20" stroke="#c9c7c0" stroke-width="1"/><rect x="4" y="60" width="20" height="20" stroke="#c9c7c0" stroke-width="1"/><rect x="4" y="88" width="20" height="20" stroke="#c9c7c0" stroke-width="1"/><rect x="4" y="116" width="20" height="20" stroke="#c9c7c0" stroke-width="1"/><rect x="32" y="4" width="20" height="20" stroke="#c9c7c0" stroke-width="1"/><rect x="32" y="32" width="20" height="20" stroke="#c9c7c0" stroke-width="1"/><rect x="32" y="60" width="20" height="20" stroke="#c9c7c0" stroke-width="1"/><rect x="32" y="88" width="20" height="20" stroke="#c9c7c0" stroke-width="1"/><rect x="32" y="116" width="20" height="20" stroke="#c9c7c0" stroke-width="1"/><rect x="60" y="4" width="20" height="20" stroke="#c9c7c0" stroke-width="1"/><rect x="60" y="32" width="20" height="20" stroke="#c9c7c0" stroke-width="1"/><rect x="60" y="60" width="20" height="20" stroke="#c9c7c0" stroke-width="1"/><rect x="60" y="88" width="20" height="20" stroke="#c9c7c0" stroke-width="1"/><rect x="60" y="116" width="20" height="20" stroke="#c9c7c0" stroke-width="1"/><rect x="88" y="4" width="20" height="20" stroke="#c9c7c0" stroke-width="1"/><rect x="88" y="32" width="20" height="20" stroke="#c9c7c0" stroke-width="1"/><rect x="88" y="60" width="20" height="20" stroke="#c9c7c0" stroke-width="1"/><rect x="88" y="88" width="20" height="20" stroke="#c9c7c0" stroke-width="1"/><rect x="88" y="116" width="20" height="20" stroke="#c9c7c0" stroke-width="1"/><rect x="116" y="4" width="20" height="20" stroke="#c9c7c0" stroke-width="1"/><rect x="116" y="32" width="20" height="20" stroke="#c9c7c0" stroke-width="1"/><rect x="116" y="60" width="20" height="20" stroke="#c9c7c0" stroke-width="1"/><rect x="116" y="88" width="20" height="20" stroke="#c9c7c0" stroke-width="1"/><rect x="116" y="116" width="20" height="20" stroke="#c9c7c0" stroke-width="1"/><rect x="144" y="4" width="20" height="20" stroke="#c9c7c0" stroke-width="1"/><rect x="144" y="32" width="20" height="20" stroke="#c9c7c0" stroke-width="1"/><rect x="144" y="60" width="20" height="20" stroke="#c9c7c0" stroke-width="1"/><rect x="144" y="88" width="20" height="20" stroke="#c9c7c0" stroke-width="1"/><rect x="144" y="116" width="20" height="20" stroke="#c9c7c0" stroke-width="1"/><rect x="172" y="4" width="20" height="20" stroke="#c9c7c0" stroke-width="1"/><rect x="172" y="32" width="20" height="20" stroke="#c9c7c0" stroke-width="1"/><rect x="172" y="60" width="20" height="20" stroke="#c9c7c0" stroke-width="1"/><rect x="172" y="88" width="20" height="20" stroke="#c9c7c0" stroke-width="1"/><rect x="172" y="116" width="20" height="20" stroke="#c9c7c0" stroke-width="1"/><rect x="200" y="4" width="20" height="20" stroke="#c9c7c0" stroke-width="1"/><rect x="200" y="32" width="20" height="20" stroke="#c9c7c0" stroke-width="1"/><rect x="200" y="60" width="20" height="20" stroke="#c9c7c0" stroke-width="1"/><rect x="200" y="88" width="20" height="20" stroke="#c9c7c0" stroke-width="1"/><rect x="200" y="116" width="20" height="20" stroke="#c9c7c0" stroke-width="1"/><rect x="228" y="4" width="20" height="20" stroke="#c9c7c0" stroke-width="1"/><rect x="228" y="32" width="20" height="20" stroke="#c9c7c0" stroke-width="1"/><rect x="228" y="60" width="20" height="20" stroke="#c9c7c0" stroke-width="1"/><rect x="228" y="88" width="20" height="20" stroke="#c9c7c0" stroke-width="1"/><rect x="228" y="116" width="20" height="20" stroke="#c9c7c0" stroke-width="1"/><rect x="256" y="4" width="20" height="20" stroke="#c9c7c0" stroke-width="1"/><rect x="256" y="32" width="20" height="20" stroke="#c9c7c0" stroke-width="1"/><rect x="256" y="60" width="20" height="20" stroke="#c9c7c0" stroke-width="1"/><rect x="256" y="88" width="20" height="20" stroke="#c9c7c0" stroke-width="1"/><rect x="256" y="116" width="20" height="20" stroke="#c9c7c0" stroke-width="1"/><rect x="284" y="4" width="20" height="20" stroke="#c9c7c0" stroke-width="1"/><rect x="284" y="32" width="20" height="20" stroke="#c9c7c0" stroke-width="1"/><rect x="284" y="60" width="20" height="20" stroke="#c9c7c0" stroke-width="1"/><rect x="284" y="88" width="20" height="20" stroke="#c9c7c0" stroke-width="1"/><rect x="284" y="116" width="20" height="20" stroke="#c9c7c0" stroke-width="1"/><rect x="312" y="4" width="20" height="20" stroke="#c9c7c0" stroke-width="1"/><rect x="312" y="32" width="20" height="20" stroke="#c9c7c0" stroke-width="1"/><rect x="312" y="60" width="20" height="20" stroke="#c9c7c0" stroke-width="1"/><rect x="312" y="88" width="20" height="20" stroke="#c9c7c0" stroke-width="1"/><rect x="312" y="116" width="20" height="20" stroke="#c9c7c0" stroke-width="1"/><rect x="340" y="4" width="20" height="20" stroke="#c9c7c0" stroke-width="1"/><rect x="340" y="32" width="20" height="20" stroke="#c9c7c0" stroke-width="1"/><rect x="340" y="60" width="20" height="20" stroke="#c9c7c0" stroke-width="1"/><rect x="340" y="88" width="20" height="20" stroke="#c9c7c0" stroke-width="1"/><rect x="340" y="116" width="20" height="20" stroke="#c9c7c0" stroke-width="1"/><rect x="368" y="4" width="20" height="20" stroke="#c9c7c0" stroke-width="1"/><rect x="368" y="32" width="20" height="20" stroke="#c9c7c0" stroke-width="1"/><rect x="368" y="60" width="20" height="20" stroke="#c9c7c0" stroke-width="1"/><rect x="368" y="88" width="20" height="20" stroke="#c9c7c0" stroke-width="1"/><rect x="368" y="116" width="20" height="20" stroke="#c9c7c0" stroke-width="1"/><rect x="396" y="4" width="20" height="20" stroke="#c9c7c0" stroke-width="1"/><rect x="396" y="32" width="20" height="20" stroke="#c9c7c0" stroke-width="1"/><rect x="396" y="60" width="20" height="20" stroke="#c9c7c0" stroke-width="1"/><rect x="396" y="88" width="20" height="20" stroke="#c9c7c0" stroke-width="1"/><rect x="396" y="116" width="20" height="20" stroke="#c9c7c0" stroke-width="1"/><rect x="424" y="4" width="20" height="20" stroke="#c9c7c0" stroke-width="1"/><rect x="424" y="32" width="20" height="20" stroke="#c9c7c0" stroke-width="1"/><rect x="424" y="60" width="20" height="20" stroke="#c9c7c0" stroke-width="1"/><rect x="424" y="88" width="20" height="20" stroke="#c9c7c0" stroke-width="1"/><rect x="424" y="116" width="20" height="20" stroke="#c9c7c0" stroke-width="1"/><rect x="452" y="4" width="20" height="20" stroke="#c9c7c0" stroke-width="1"/><rect x="452" y="32" width="20" height="20" stroke="#c9c7c0" stroke-width="1"/><rect x="452" y="60" width="20" height="20" stroke="#c9c7c0" stroke-width="1"/><rect x="452" y="88" width="20" height="20" stroke="#c9c7c0" stroke-width="1"/><rect x="452" y="116" width="20" height="20" stroke="#c9c7c0" stroke-width="1"/><rect x="480" y="4" width="20" height="20" stroke="#c9c7c0" stroke-width="1"/><rect x="480" y="32" width="20" height="20" stroke="#c9c7c0" stroke-width="1"/><rect x="480" y="60" width="20" height="20" stroke="#c9c7c0" stroke-width="1"/><rect x="480" y="88" width="20" height="20" stroke="#c9c7c0" stroke-width="1"/><rect x="480" y="116" width="20" height="20" stroke="#c9c7c0" stroke-width="1"/><rect x="508" y="4" width="20" height="20" stroke="#c9c7c0" stroke-width="1"/><rect x="508" y="32" width="20" height="20" stroke="#c9c7c0" stroke-width="1"/><rect x="508" y="60" width="20" height="20" stroke="#c9c7c0" stroke-width="1"/><rect x="508" y="88" width="20" height="20" stroke="#c9c7c0" stroke-width="1"/><rect x="508" y="116" width="20" height="20" stroke="#c9c7c0" stroke-width="1"/><rect x="536" y="4" width="20" height="20" stroke="#c9c7c0" stroke-width="1"/><rect x="536" y="32" width="20" height="20" stroke="#c9c7c0" stroke-width="1"/><rect x="536" y="60" width="20" height="20" stroke="#c9c7c0" stroke-width="1"/><rect x="536" y="88" width="20" height="20" stroke="#c9c7c0" stroke-width="1"/><rect x="536" y="116" width="20" height="20" stroke="#c9c7c0" stroke-width="1"/><rect x="564" y="4" width="20" height="20" stroke="#c9c7c0" stroke-width="1"/><rect x="564" y="32" width="20" height="20" stroke="#c9c7c0" stroke-width="1"/><rect x="564" y="60" width="20" height="20" stroke="#c9c7c0" stroke-width="1"/><rect x="564" y="88" width="20" height="20" stroke="#c9c7c0" stroke-width="1"/><rect x="564" y="116" width="20" height="20" stroke="#c9c7c0" stroke-width="1"/><rect x="592" y="4" width="20" height="20" stroke="#c9c7c0" stroke-width="1"/><rect x="592" y="32" width="20" height="20" stroke="#c9c7c0" stroke-width="1"/><rect x="592" y="60" width="20" height="20" stroke="#c9c7c0" stroke-width="1"/><rect x="592" y="88" width="20" height="20" stroke="#c9c7c0" stroke-width="1"/><rect x="592" y="116" width="20" height="20" stroke="#c9c7c0" stroke-width="1"/><rect x="620" y="4" width="20" height="20" stroke="#c9c7c0" stroke-width="1"/><rect x="620" y="32" width="20" height="20" stroke="#c9c7c0" stroke-width="1"/><rect x="620" y="60" width="20" height="20" stroke="#c9c7c0" stroke-width="1"/><rect x="620" y="88" width="20" height="20" stroke="#c9c7c0" stroke-width="1"/><rect x="620" y="116" width="20" height="20" stroke="#c9c7c0" stroke-width="1"/><path d="M0.0 67.6L5.9 68.5" stroke="#262624" stroke-width="2.80"/><path d="M5.9 68.5L11.9 67.5" stroke="#262624" stroke-width="2.80"/><path d="M11.9 67.5L17.6 65.9" stroke="#262624" stroke-width="2.80"/><path d="M17.6 65.9L23.1 63.4" stroke="#262624" stroke-width="2.80"/><path d="M23.1 63.4L28.3 60.4" stroke="#262624" stroke-width="2.80"/><path d="M28.3 60.4L31.1 55.1" stroke="#262624" stroke-width="2.80"/><path d="M31.1 55.1L37.1 55.0" stroke="#262624" stroke-width="2.80"/><path d="M37.1 55.0L40.8 50.3" stroke="#262624" stroke-width="2.80"/><path d="M40.8 50.3L46.8 50.4" stroke="#262624" stroke-width="2.80"/><path d="M46.8 50.4L52.8 49.7" stroke="#262624" stroke-width="2.80"/><path d="M52.8 49.7L58.7 50.6" stroke="#262624" stroke-width="2.80"/><path d="M58.7 50.6L64.6 51.4" stroke="#262624" stroke-width="2.80"/><path d="M64.6 51.4L70.2 53.6" stroke="#262624" stroke-width="2.80"/><path d="M70.2 53.6L75.0 57.2" stroke="#262624" stroke-width="2.80"/><path d="M75.0 57.2L81.0 56.8" stroke="#262624" stroke-width="2.80"/><path d="M81.0 56.8L85.8 60.4" stroke="#262624" stroke-width="2.80"/><path d="M85.8 60.4L90.7 63.9" stroke="#262624" stroke-width="2.80"/><path d="M90.7 63.9L96.3 66.2" stroke="#262624" stroke-width="2.80"/><path d="M96.3 66.2L101.5 69.0" stroke="#262624" stroke-width="2.80"/><path d="M101.5 69.0L107.0 66.7" stroke="#262624" stroke-width="2.80"/><path d="M107.0 66.7L112.5 64.2" stroke="#262624" stroke-width="2.80"/><path d="M112.5 64.2L118.2 66.0" stroke="#262624" stroke-width="2.80"/><path d="M118.2 66.0L124.2 65.8" stroke="#262624" stroke-width="2.80"/><path d="M124.2 65.8L130.2 65.4" stroke="#262624" stroke-width="2.80"/><path d="M130.2 65.4L135.0 61.9" stroke="#262624" stroke-width="2.80"/><path d="M135.0 61.9L135.4 55.9" stroke="#262624" stroke-width="2.80"/><path d="M135.4 55.9L140.8 53.3" stroke="#262624" stroke-width="2.80"/><path d="M140.8 53.3L146.4 51.3" stroke="#262624" stroke-width="2.80"/><path d="M146.4 51.3L151.9 48.7" stroke="#262624" stroke-width="2.80"/><path d="M151.9 48.7L157.1 45.8" stroke="#262624" stroke-width="2.80"/><path d="M157.1 45.8L160.9 41.1" stroke="#262624" stroke-width="2.80"/><path d="M160.9 41.1L166.8 40.4" stroke="#262624" stroke-width="2.80"/><path d="M166.8 40.4L172.7 41.6" stroke="#262624" stroke-width="2.80"/><path d="M172.7 41.6L178.7 41.6" stroke="#262624" stroke-width="2.80"/><path d="M178.7 41.6L183.5 37.9" stroke="#262624" stroke-width="2.80"/><path d="M183.5 37.9L189.4 37.6" stroke="#262624" stroke-width="2.80"/><path d="M189.4 37.6L194.6 40.7" stroke="#262624" stroke-width="2.80"/><path d="M194.6 40.7L199.0 44.7" stroke="#262624" stroke-width="2.80"/><path d="M199.0 44.7L203.7 48.6" stroke="#262624" stroke-width="2.80"/><path d="M203.7 48.6L208.9 51.6" stroke="#262624" stroke-width="2.80"/><path d="M208.9 51.6L213.6 55.3" stroke="#262624" stroke-width="2.80"/><path d="M213.6 55.3L219.6 55.7" stroke="#262624" stroke-width="2.80"/><path d="M219.6 55.7L225.5 54.9" stroke="#262624" stroke-width="2.80"/><path d="M225.5 54.9L231.5 55.5" stroke="#262624" stroke-width="2.80"/><path d="M231.5 55.5L237.1 53.4" stroke="#262624" stroke-width="2.80"/><path d="M237.1 53.4L242.2 56.4" stroke="#262624" stroke-width="2.80"/><path d="M242.2 56.4L246.5 60.7" stroke="#262624" stroke-width="2.80"/><path d="M246.5 60.7L251.3 64.3" stroke="#262624" stroke-width="2.80"/><path d="M251.3 64.3L257.2 64.2" stroke="#262624" stroke-width="2.80"/><path d="M257.2 64.2L263.1 65.6" stroke="#262624" stroke-width="2.80"/><path d="M263.1 65.6L268.7 63.5" stroke="#262624" stroke-width="2.80"/><path d="M268.7 63.5L274.6 64.4" stroke="#262624" stroke-width="2.80"/><path d="M274.6 64.4L280.6 64.6" stroke="#262624" stroke-width="2.80"/><path d="M280.6 64.6L286.6 64.9" stroke="#262624" stroke-width="2.80"/><path d="M286.6 64.9L292.5 66.0" stroke="#262624" stroke-width="2.80"/><path d="M292.5 66.0L297.1 62.2" stroke="#262624" stroke-width="2.80"/><path d="M297.1 62.2L302.5 59.5" stroke="#262624" stroke-width="2.80"/><path d="M302.5 59.5L308.5 60.0" stroke="#262624" stroke-width="2.80"/><path d="M308.5 60.0L314.4 60.7" stroke="#262624" stroke-width="2.80"/><path d="M314.4 60.7L320.4 60.6" stroke="#262624" stroke-width="2.80"/><path d="M320.4 60.6L326.4 60.2" stroke="#262624" stroke-width="2.80"/><path d="M326.4 60.2L332.3 59.1" stroke="#262624" stroke-width="2.80"/><path d="M332.3 59.1L338.3 59.5" stroke="#262624" stroke-width="2.80"/><path d="M338.3 59.5L344.2 60.9" stroke="#262624" stroke-width="2.80"/><path d="M344.2 60.9L348.2 65.3" stroke="#262624" stroke-width="2.80"/><path d="M348.2 65.3L351.5 70.3" stroke="#262624" stroke-width="2.80"/><path d="M351.5 70.3L356.1 74.2" stroke="#262624" stroke-width="2.80"/><path d="M356.1 74.2L358.9 79.5" stroke="#262624" stroke-width="2.80"/><path d="M358.9 79.5L364.5 77.5" stroke="#262624" stroke-width="2.80"/><path d="M364.5 77.5L370.3 79.2" stroke="#262624" stroke-width="2.80"/><path d="M370.3 79.2L376.3 78.9" stroke="#262624" stroke-width="2.80"/><path d="M376.3 78.9L382.3 79.3" stroke="#262624" stroke-width="2.80"/><path d="M382.3 79.3L388.1 80.8" stroke="#262624" stroke-width="2.80"/><path d="M388.1 80.8L394.1 80.8" stroke="#262624" stroke-width="2.80"/><path d="M394.1 80.8L399.7 78.6" stroke="#262624" stroke-width="2.80"/><path d="M399.7 78.6L404.5 75.1" stroke="#262624" stroke-width="2.80"/><path d="M404.5 75.1L405.5 69.1" stroke="#262624" stroke-width="2.80"/><path d="M405.5 69.1L404.0 63.3" stroke="#262624" stroke-width="2.80"/><path d="M404.0 63.3L406.1 57.7" stroke="#262624" stroke-width="2.80"/><path d="M406.1 57.7L410.1 53.3" stroke="#262624" stroke-width="2.80"/><path d="M410.1 53.3L413.4 48.2" stroke="#262624" stroke-width="2.80"/><path d="M413.4 48.2L418.1 44.5" stroke="#262624" stroke-width="2.80"/><path d="M418.1 44.5L423.7 42.4" stroke="#262624" stroke-width="2.80"/><path d="M423.7 42.4L429.7 42.0" stroke="#262624" stroke-width="2.80"/><path d="M429.7 42.0L435.7 42.2" stroke="#262624" stroke-width="2.80"/><path d="M435.7 42.2L441.6 41.3" stroke="#262624" stroke-width="2.80"/><path d="M441.6 41.3L447.3 39.6" stroke="#262624" stroke-width="2.80"/><path d="M447.3 39.6L451.8 35.6" stroke="#262624" stroke-width="2.80"/><path d="M451.8 35.6L457.5 33.6" stroke="#262624" stroke-width="2.80"/><path d="M457.5 33.6L461.1 38.3" stroke="#262624" stroke-width="2.80"/><path d="M461.1 38.3L464.8 43.1" stroke="#262624" stroke-width="2.80"/><path d="M464.8 43.1L465.7 49.0" stroke="#262624" stroke-width="2.80"/><path d="M465.7 49.0L468.8 54.1" stroke="#262624" stroke-width="2.80"/><path d="M468.8 54.1L471.6 59.4" stroke="#262624" stroke-width="2.80"/><path d="M471.6 59.4L476.9 62.2" stroke="#262624" stroke-width="2.80"/><path d="M476.9 62.2L482.6 64.3" stroke="#262624" stroke-width="2.80"/><path d="M482.6 64.3L487.5 67.8" stroke="#262624" stroke-width="2.80"/><path d="M487.5 67.8L493.3 69.3" stroke="#262624" stroke-width="2.80"/><path d="M493.3 69.3L499.2 70.2" stroke="#262624" stroke-width="2.80"/><path d="M499.2 70.2L505.0 71.8" stroke="#262624" stroke-width="2.80"/><path d="M505.0 71.8L510.6 74.0" stroke="#262624" stroke-width="2.80"/><path d="M510.6 74.0L516.6 73.7" stroke="#262624" stroke-width="2.80"/><path d="M516.6 73.7L521.9 71.0" stroke="#262624" stroke-width="2.80"/><path d="M521.9 71.0L526.7 67.3" stroke="#262624" stroke-width="2.80"/><path d="M526.7 67.3L531.3 63.5" stroke="#262624" stroke-width="2.80"/><path d="M531.3 63.5L535.4 59.1" stroke="#262624" stroke-width="2.80"/><path d="M535.4 59.1L541.2 57.6" stroke="#262624" stroke-width="2.80"/><path d="M541.2 57.6L544.6 52.7" stroke="#262624" stroke-width="2.80"/><path d="M544.6 52.7L548.9 48.5" stroke="#262624" stroke-width="2.80"/><path d="M548.9 48.5L553.1 44.2" stroke="#262624" stroke-width="2.80"/><path d="M553.1 44.2L558.8 42.2" stroke="#262624" stroke-width="2.80"/><path d="M558.8 42.2L564.4 40.1" stroke="#262624" stroke-width="2.80"/><path d="M564.4 40.1L568.5 35.7" stroke="#262624" stroke-width="2.80"/><path d="M568.5 35.7L571.4 30.5" stroke="#262624" stroke-width="2.80"/><path d="M571.4 30.5L577.3 29.6" stroke="#262624" stroke-width="2.80"/><path d="M577.3 29.6L583.3 30.1" stroke="#262624" stroke-width="2.80"/><path d="M583.3 30.1L588.1 26.5" stroke="#262624" stroke-width="2.80"/><path d="M588.1 26.5L594.0 25.3" stroke="#262624" stroke-width="2.80"/><path d="M594.0 25.3L600.0 25.0" stroke="#262624" stroke-width="2.80"/><path d="M600.0 25.0L605.6 27.0" stroke="#262624" stroke-width="2.80"/><path d="M605.6 27.0L611.3 28.9" stroke="#262624" stroke-width="2.80"/><path d="M611.3 28.9L617.1 30.5" stroke="#262624" stroke-width="2.80"/><path d="M617.1 30.5L621.8 34.3" stroke="#262624" stroke-width="2.80"/><path d="M621.8 34.3L626.5 37.9" stroke="#262624" stroke-width="2.80"/><path d="M626.5 37.9L629.8 42.9" stroke="#262624" stroke-width="2.80"/><path d="M629.8 42.9L633.8 47.4" stroke="#262624" stroke-width="2.80"/><path d="M633.8 47.4L635.7 53.1" stroke="#262624" stroke-width="2.80"/><path d="M635.7 53.1L637.6 58.8" stroke="#262624" stroke-width="2.80"/><path d="M637.6 58.8L641.1 63.7" stroke="#262624" stroke-width="2.80"/><circle cx="6" cy="67.6" r="5" fill="#004fcc" stroke="none"/></g></svg>
