<svg xmlns="http://www.w3.org/2000/svg" viewBox="0 0 640 120" width="640" height="120" role="img" aria-label="A crack running across an orderly grid of blocks, with a section line through it"><g fill="none" stroke-linecap="round" stroke-linejoin="round"><rect x="14.0" y="14.0" width="20.0" height="20.0" stroke="#c9c7c0" stroke-width="0.5" fill="none"/><rect x="14.0" y="40.0" width="20.0" height="20.0" stroke="#c9c7c0" stroke-width="0.5" fill="none"/><rect x="14.0" y="66.0" width="20.0" height="20.0" stroke="#c9c7c0" stroke-width="0.5" fill="none"/><rect x="14.0" y="92.0" width="20.0" height="20.0" stroke="#c9c7c0" stroke-width="0.5" fill="none"/><rect x="40.0" y="14.0" width="20.0" height="20.0" stroke="#c9c7c0" stroke-width="0.5" fill="none"/><rect x="40.0" y="40.0" width="20.0" height="20.0" stroke="#c9c7c0" stroke-width="0.5" fill="none"/><rect x="40.0" y="66.0" width="20.0" height="20.0" stroke="#c9c7c0" stroke-width="0.5" fill="none"/><rect x="40.0" y="92.0" width="20.0" height="20.0" stroke="#c9c7c0" stroke-width="0.5" fill="none"/><rect x="66.0" y="14.0" width="20.0" height="20.0" stroke="#c9c7c0" stroke-width="0.5" fill="none"/><rect x="66.0" y="40.0" width="20.0" height="20.0" stroke="#c9c7c0" stroke-width="0.5" fill="none"/><rect x="66.0" y="66.0" width="20.0" height="20.0" stroke="#c9c7c0" stroke-width="0.5" fill="none"/><rect x="66.0" y="92.0" width="20.0" height="20.0" stroke="#c9c7c0" stroke-width="0.5" fill="none"/><rect x="92.0" y="14.0" width="20.0" height="20.0" stroke="#c9c7c0" stroke-width="0.5" fill="none"/><rect x="92.0" y="40.0" width="20.0" height="20.0" stroke="#c9c7c0" stroke-width="0.5" fill="none"/><rect x="92.0" y="66.0" width="20.0" height="20.0" stroke="#c9c7c0" stroke-width="0.5" fill="none"/><rect x="92.0" y="92.0" width="20.0" height="20.0" stroke="#c9c7c0" stroke-width="0.5" fill="none"/><rect x="118.0" y="14.0" width="20.0" height="20.0" stroke="#c9c7c0" stroke-width="0.5" fill="none"/><rect x="118.0" y="40.0" width="20.0" height="20.0" stroke="#c9c7c0" stroke-width="0.5" fill="none"/><rect x="118.0" y="66.0" width="20.0" height="20.0" stroke="#c9c7c0" stroke-width="0.5" fill="none"/><rect x="118.0" y="92.0" width="20.0" height="20.0" stroke="#c9c7c0" stroke-width="0.5" fill="none"/><rect x="144.0" y="14.0" width="20.0" height="20.0" stroke="#c9c7c0" stroke-width="0.5" fill="none"/><rect x="144.0" y="40.0" width="20.0" height="20.0" stroke="#c9c7c0" stroke-width="0.5" fill="none"/><rect x="144.0" y="66.0" width="20.0" height="20.0" stroke="#c9c7c0" stroke-width="0.5" fill="none"/><rect x="144.0" y="92.0" width="20.0" height="20.0" stroke="#c9c7c0" stroke-width="0.5" fill="none"/><rect x="170.0" y="14.0" width="20.0" height="20.0" stroke="#c9c7c0" stroke-width="0.5" fill="none"/><rect x="170.0" y="40.0" width="20.0" height="20.0" stroke="#c9c7c0" stroke-width="0.5" fill="none"/><rect x="170.0" y="66.0" width="20.0" height="20.0" stroke="#c9c7c0" stroke-width="0.5" fill="none"/><rect x="170.0" y="92.0" width="20.0" height="20.0" stroke="#c9c7c0" stroke-width="0.5" fill="none"/><rect x="196.0" y="14.0" width="20.0" height="20.0" stroke="#c9c7c0" stroke-width="0.5" fill="none"/><rect x="196.0" y="40.0" width="20.0" height="20.0" stroke="#c9c7c0" stroke-width="0.5" fill="none"/><rect x="196.0" y="66.0" width="20.0" height="20.0" stroke="#c9c7c0" stroke-width="0.5" fill="none"/><rect x="196.0" y="92.0" width="20.0" height="20.0" stroke="#c9c7c0" stroke-width="0.5" fill="none"/><rect x="222.0" y="14.0" width="20.0" height="20.0" stroke="#c9c7c0" stroke-width="0.5" fill="none"/><rect x="222.0" y="40.0" width="20.0" height="20.0" stroke="#c9c7c0" stroke-width="0.5" fill="none"/><rect x="222.0" y="66.0" width="20.0" height="20.0" stroke="#c9c7c0" stroke-width="0.5" fill="none"/><rect x="222.0" y="92.0" width="20.0" height="20.0" stroke="#c9c7c0" stroke-width="0.5" fill="none"/><rect x="248.0" y="14.0" width="20.0" height="20.0" stroke="#c9c7c0" stroke-width="0.5" fill="none"/><rect x="248.0" y="40.0" width="20.0" height="20.0" stroke="#c9c7c0" stroke-width="0.5" fill="none"/><rect x="248.0" y="66.0" width="20.0" height="20.0" stroke="#c9c7c0" stroke-width="0.5" fill="none"/><rect x="248.0" y="92.0" width="20.0" height="20.0" stroke="#c9c7c0" stroke-width="0.5" fill="none"/><rect x="274.0" y="14.0" width="20.0" height="20.0" stroke="#c9c7c0" stroke-width="0.5" fill="none"/><rect x="274.0" y="40.0" width="20.0" height="20.0" stroke="#c9c7c0" stroke-width="0.5" fill="none"/><rect x="274.0" y="66.0" width="20.0" height="20.0" stroke="#c9c7c0" stroke-width="0.5" fill="none"/><rect x="274.0" y="92.0" width="20.0" height="20.0" stroke="#c9c7c0" stroke-width="0.5" fill="none"/><rect x="300.0" y="14.0" width="20.0" height="20.0" stroke="#c9c7c0" stroke-width="0.5" fill="none"/><rect x="300.0" y="40.0" width="20.0" height="20.0" stroke="#c9c7c0" stroke-width="0.5" fill="none"/><rect x="300.0" y="66.0" width="20.0" height="20.0" stroke="#c9c7c0" stroke-width="0.5" fill="none"/><rect x="300.0" y="92.0" width="20.0" height="20.0" stroke="#c9c7c0" stroke-width="0.5" fill="none"/><rect x="326.0" y="14.0" width="20.0" height="20.0" stroke="#c9c7c0" stroke-width="0.5" fill="none"/><rect x="326.0" y="40.0" width="20.0" height="20.0" stroke="#c9c7c0" stroke-width="0.5" fill="none"/><rect x="326.0" y="66.0" width="20.0" height="20.0" stroke="#c9c7c0" stroke-width="0.5" fill="none"/><rect x="326.0" y="92.0" width="20.0" height="20.0" stroke="#c9c7c0" stroke-width="0.5" fill="none"/><rect x="352.0" y="14.0" width="20.0" height="20.0" stroke="#c9c7c0" stroke-width="0.5" fill="none"/><rect x="352.0" y="40.0" width="20.0" height="20.0" stroke="#c9c7c0" stroke-width="0.5" fill="none"/><rect x="352.0" y="66.0" width="20.0" height="20.0" stroke="#c9c7c0" stroke-width="0.5" fill="none"/><rect x="352.0" y="92.0" width="20.0" height="20.0" stroke="#c9c7c0" stroke-width="0.5" fill="none"/><rect x="378.0" y="14.0" width="20.0" height="20.0" stroke="#c9c7c0" stroke-width="0.5" fill="none"/><rect x="378.0" y="40.0" width="20.0" height="20.0" stroke="#c9c7c0" stroke-width="0.5" fill="none"/><rect x="378.0" y="66.0" width="20.0" height="20.0" stroke="#c9c7c0" stroke-width="0.5" fill="none"/><rect x="378.0" y="92.0" width="20.0" height="20.0" stroke="#c9c7c0" stroke-width="0.5" fill="none"/><rect x="404.0" y="14.0" width="20.0" height="20.0" stroke="#c9c7c0" stroke-width="0.5" fill="none"/><rect x="404.0" y="40.0" width="20.0" height="20.0" stroke="#c9c7c0" stroke-width="0.5" fill="none"/><rect x="404.0" y="66.0" width="20.0" height="20.0" stroke="#c9c7c0" stroke-width="0.5" fill="none"/><rect x="404.0" y="92.0" width="20.0" height="20.0" stroke="#c9c7c0" stroke-width="0.5" fill="none"/><rect x="430.0" y="14.0" width="20.0" height="20.0" stroke="#c9c7c0" stroke-width="0.5" fill="none"/><rect x="430.0" y="40.0" width="20.0" height="20.0" stroke="#c9c7c0" stroke-width="0.5" fill="none"/><rect x="430.0" y="66.0" width="20.0" height="20.0" stroke="#c9c7c0" stroke-width="0.5" fill="none"/><rect x="430.0" y="92.0" width="20.0" height="20.0" stroke="#c9c7c0" stroke-width="0.5" fill="none"/><rect x="456.0" y="14.0" width="20.0" height="20.0" stroke="#c9c7c0" stroke-width="0.5" fill="none"/><rect x="456.0" y="40.0" width="20.0" height="20.0" stroke="#c9c7c0" stroke-width="0.5" fill="none"/><rect x="456.0" y="66.0" width="20.0" height="20.0" stroke="#c9c7c0" stroke-width="0.5" fill="none"/><rect x="456.0" y="92.0" width="20.0" height="20.0" stroke="#c9c7c0" stroke-width="0.5" fill="none"/><rect x="482.0" y="14.0" width="20.0" height="20.0" stroke="#c9c7c0" stroke-width="0.5" fill="none"/><rect x="482.0" y="40.0" width="20.0" height="20.0" stroke="#c9c7c0" stroke-width="0.5" fill="none"/><rect x="482.0" y="66.0" width="20.0" height="20.0" stroke="#c9c7c0" stroke-width="0.5" fill="none"/><rect x="482.0" y="92.0" width="20.0" height="20.0" stroke="#c9c7c0" stroke-width="0.5" fill="none"/><rect x="508.0" y="14.0" width="20.0" height="20.0" stroke="#c9c7c0" stroke-width="0.5" fill="none"/><rect x="508.0" y="40.0" width="20.0" height="20.0" stroke="#c9c7c0" stroke-width="0.5" fill="none"/><rect x="508.0" y="66.0" width="20.0" height="20.0" stroke="#c9c7c0" stroke-width="0.5" fill="none"/><rect x="508.0" y="92.0" width="20.0" height="20.0" stroke="#c9c7c0" stroke-width="0.5" fill="none"/><rect x="534.0" y="14.0" width="20.0" height="20.0" stroke="#c9c7c0" stroke-width="0.5" fill="none"/><rect x="534.0" y="40.0" width="20.0" height="20.0" stroke="#c9c7c0" stroke-width="0.5" fill="none"/><rect x="534.0" y="66.0" width="20.0" height="20.0" stroke="#c9c7c0" stroke-width="0.5" fill="none"/><rect x="534.0" y="92.0" width="20.0" height="20.0" stroke="#c9c7c0" stroke-width="0.5" fill="none"/><rect x="560.0" y="14.0" width="20.0" height="20.0" stroke="#c9c7c0" stroke-width="0.5" fill="none"/><rect x="560.0" y="40.0" width="20.0" height="20.0" stroke="#c9c7c0" stroke-width="0.5" fill="none"/><rect x="560.0" y="66.0" width="20.0" height="20.0" stroke="#c9c7c0" stroke-width="0.5" fill="none"/><rect x="560.0" y="92.0" width="20.0" height="20.0" stroke="#c9c7c0" stroke-width="0.5" fill="none"/><rect x="586.0" y="14.0" width="20.0" height="20.0" stroke="#c9c7c0" stroke-width="0.5" fill="none"/><rect x="586.0" y="40.0" width="20.0" height="20.0" stroke="#c9c7c0" stroke-width="0.5" fill="none"/><rect x="586.0" y="66.0" width="20.0" height="20.0" stroke="#c9c7c0" stroke-width="0.5" fill="none"/><rect x="586.0" y="92.0" width="20.0" height="20.0" stroke="#c9c7c0" stroke-width="0.5" fill="none"/><rect x="612.0" y="14.0" width="20.0" height="20.0" stroke="#c9c7c0" stroke-width="0.5" fill="none"/><rect x="612.0" y="40.0" width="20.0" height="20.0" stroke="#c9c7c0" stroke-width="0.5" fill="none"/><rect x="612.0" y="66.0" width="20.0" height="20.0" stroke="#c9c7c0" stroke-width="0.5" fill="none"/><rect x="612.0" y="92.0" width="20.0" height="20.0" stroke="#c9c7c0" stroke-width="0.5" fill="none"/><path d="M14.0 63.4L18.9 64.1" stroke="#262624" stroke-width="1.54"/><path d="M18.9 64.1L23.9 63.4" stroke="#262624" stroke-width="1.54"/><path d="M23.9 63.4L28.8 62.3" stroke="#262624" stroke-width="1.54"/><path d="M28.8 62.3L33.5 60.6" stroke="#262624" stroke-width="1.54"/><path d="M33.5 60.6L37.9 58.3" stroke="#262624" stroke-width="1.54"/><path d="M37.9 58.3L40.6 54.1" stroke="#262624" stroke-width="1.54"/><path d="M40.6 54.1L45.6 54.4" stroke="#262624" stroke-width="1.54"/><path d="M45.6 54.4L48.9 50.6" stroke="#262624" stroke-width="1.54"/><path d="M48.9 50.6L53.9 50.9" stroke="#262624" stroke-width="1.54"/><path d="M53.9 50.9L58.9 50.5" stroke="#262624" stroke-width="1.54"/><path d="M58.9 50.5L63.8 51.3" stroke="#262624" stroke-width="1.54"/><path d="M63.8 51.3L68.7 52.0" stroke="#262624" stroke-width="1.54"/><path d="M68.7 52.0L73.4 53.8" stroke="#262624" stroke-width="1.54"/><path d="M73.4 53.8L77.4 56.9" stroke="#262624" stroke-width="1.54"/><path d="M77.4 56.9L82.4 56.6" stroke="#262624" stroke-width="1.54"/><path d="M82.4 56.6L86.4 59.6" stroke="#262624" stroke-width="1.54"/><path d="M86.4 59.6L90.4 62.6" stroke="#262624" stroke-width="1.54"/><path d="M90.4 62.6L95.0 64.5" stroke="#262624" stroke-width="1.54"/><path d="M95.0 64.5L99.3 67.0" stroke="#262624" stroke-width="1.54"/><path d="M99.3 67.0L104.0 65.2" stroke="#262624" stroke-width="1.54"/><path d="M104.0 65.2L108.6 63.2" stroke="#262624" stroke-width="1.54"/><path d="M108.6 63.2L113.3 64.9" stroke="#262624" stroke-width="1.54"/><path d="M113.3 64.9L118.3 64.9" stroke="#262624" stroke-width="1.54"/><path d="M118.3 64.9L123.3 64.8" stroke="#262624" stroke-width="1.54"/><path d="M123.3 64.8L127.4 62.0" stroke="#262624" stroke-width="1.54"/><path d="M127.4 62.0L127.9 57.1" stroke="#262624" stroke-width="1.54"/><path d="M127.9 57.1L132.4 54.9" stroke="#262624" stroke-width="1.54"/><path d="M132.4 54.9L137.1 53.2" stroke="#262624" stroke-width="1.54"/><path d="M137.1 53.2L141.6 51.0" stroke="#262624" stroke-width="1.54"/><path d="M141.6 51.0L145.9 48.5" stroke="#262624" stroke-width="1.54"/><path d="M145.9 48.5L148.9 44.4" stroke="#262624" stroke-width="1.54"/><path d="M148.9 44.4L153.8 43.6" stroke="#262624" stroke-width="1.54"/><path d="M153.8 43.6L158.7 44.2" stroke="#262624" stroke-width="1.54"/><path d="M158.7 44.2L163.7 43.9" stroke="#262624" stroke-width="1.54"/><path d="M163.7 43.9L167.4 40.5" stroke="#262624" stroke-width="1.54"/><path d="M167.4 40.5L172.4 40.0" stroke="#262624" stroke-width="1.54"/><path d="M172.4 40.0L176.9 42.2" stroke="#262624" stroke-width="1.54"/><path d="M176.9 42.2L180.8 45.3" stroke="#262624" stroke-width="1.54"/><path d="M180.8 45.3L184.8 48.3" stroke="#262624" stroke-width="1.54"/><path d="M184.8 48.3L189.3 50.5" stroke="#262624" stroke-width="1.54"/><path d="M189.3 50.5L193.3 53.5" stroke="#262624" stroke-width="1.54"/><path d="M193.3 53.5L198.3 53.9" stroke="#262624" stroke-width="1.54"/><path d="M198.3 53.9L203.3 53.2" stroke="#262624" stroke-width="1.54"/><path d="M203.3 53.2L208.2 53.7" stroke="#262624" stroke-width="1.54"/><path d="M208.2 53.7L212.9 52.1" stroke="#262624" stroke-width="1.54"/><path d="M212.9 52.1L217.2 54.7" stroke="#262624" stroke-width="1.54"/><path d="M217.2 54.7L220.6 58.4" stroke="#262624" stroke-width="1.54"/><path d="M220.6 58.4L224.4 61.6" stroke="#262624" stroke-width="1.54"/><path d="M224.4 61.6L229.4 61.7" stroke="#262624" stroke-width="1.54"/><path d="M229.4 61.7L234.2 63.2" stroke="#262624" stroke-width="1.54"/><path d="M234.2 63.2L239.0 61.7" stroke="#262624" stroke-width="1.54"/><path d="M239.0 61.7L243.9 62.8" stroke="#262624" stroke-width="1.54"/><path d="M243.9 62.8L248.8 63.3" stroke="#262624" stroke-width="1.54"/><path d="M248.8 63.3L253.8 63.8" stroke="#262624" stroke-width="1.54"/><path d="M253.8 63.8L258.7 64.9" stroke="#262624" stroke-width="1.54"/><path d="M258.7 64.9L262.7 62.0" stroke="#262624" stroke-width="1.54"/><path d="M262.7 62.0L267.2 59.9" stroke="#262624" stroke-width="1.54"/><path d="M267.2 59.9L272.2 60.5" stroke="#262624" stroke-width="1.54"/><path d="M272.2 60.5L277.2 61.2" stroke="#262624" stroke-width="1.54"/><path d="M277.2 61.2L282.2 61.1" stroke="#262624" stroke-width="1.54"/><path d="M282.2 61.1L287.2 60.8" stroke="#262624" stroke-width="1.54"/><path d="M287.2 60.8L292.1 59.9" stroke="#262624" stroke-width="1.54"/><path d="M292.1 59.9L297.1 60.3" stroke="#262624" stroke-width="1.54"/><path d="M297.1 60.3L301.9 61.3" stroke="#262624" stroke-width="1.54"/><path d="M301.9 61.3L305.3 65.0" stroke="#262624" stroke-width="1.54"/><path d="M305.3 65.0L308.1 69.2" stroke="#262624" stroke-width="1.54"/><path d="M308.1 69.2L311.9 72.4" stroke="#262624" stroke-width="1.54"/><path d="M311.9 72.4L314.2 76.9" stroke="#262624" stroke-width="1.54"/><path d="M314.2 76.9L319.0 75.3" stroke="#262624" stroke-width="1.54"/><path d="M319.0 75.3L323.7 76.9" stroke="#262624" stroke-width="1.54"/><path d="M323.7 76.9L328.7 76.9" stroke="#262624" stroke-width="1.54"/><path d="M328.7 76.9L333.7 77.5" stroke="#262624" stroke-width="1.54"/><path d="M333.7 77.5L338.4 79.0" stroke="#262624" stroke-width="1.54"/><path d="M338.4 79.0L343.4 79.3" stroke="#262624" stroke-width="1.54"/><path d="M343.4 79.3L348.2 77.7" stroke="#262624" stroke-width="1.54"/><path d="M348.2 77.7L352.3 74.9" stroke="#262624" stroke-width="1.54"/><path d="M352.3 74.9L353.4 70.0" stroke="#262624" stroke-width="1.54"/><path d="M353.4 70.0L352.3 65.1" stroke="#262624" stroke-width="1.54"/><path d="M352.3 65.1L354.1 60.5" stroke="#262624" stroke-width="1.54"/><path d="M354.1 60.5L357.4 56.7" stroke="#262624" stroke-width="1.54"/><path d="M357.4 56.7L359.9 52.4" stroke="#262624" stroke-width="1.54"/><path d="M359.9 52.4L363.7 49.1" stroke="#262624" stroke-width="1.54"/><path d="M363.7 49.1L368.2 47.0" stroke="#262624" stroke-width="1.54"/><path d="M368.2 47.0L373.2 46.3" stroke="#262624" stroke-width="1.54"/><path d="M373.2 46.3L378.1 46.0" stroke="#262624" stroke-width="1.54"/><path d="M378.1 46.0L383.0 44.7" stroke="#262624" stroke-width="1.54"/><path d="M383.0 44.7L387.6 42.7" stroke="#262624" stroke-width="1.54"/><path d="M387.6 42.7L390.9 39.0" stroke="#262624" stroke-width="1.54"/><path d="M390.9 39.0L395.4 36.9" stroke="#262624" stroke-width="1.54"/><path d="M395.4 36.9L398.9 40.5" stroke="#262624" stroke-width="1.54"/><path d="M398.9 40.5L402.4 44.1" stroke="#262624" stroke-width="1.54"/><path d="M402.4 44.1L403.5 48.9" stroke="#262624" stroke-width="1.54"/><path d="M403.5 48.9L406.4 53.0" stroke="#262624" stroke-width="1.54"/><path d="M406.4 53.0L409.0 57.3" stroke="#262624" stroke-width="1.54"/><path d="M409.0 57.3L413.4 59.6" stroke="#262624" stroke-width="1.54"/><path d="M413.4 59.6L418.1 61.3" stroke="#262624" stroke-width="1.54"/><path d="M418.1 61.3L422.2 64.2" stroke="#262624" stroke-width="1.54"/><path d="M422.2 64.2L426.9 65.7" stroke="#262624" stroke-width="1.54"/><path d="M426.9 65.7L431.8 66.8" stroke="#262624" stroke-width="1.54"/><path d="M431.8 66.8L436.6 68.4" stroke="#262624" stroke-width="1.54"/><path d="M436.6 68.4L441.1 70.5" stroke="#262624" stroke-width="1.54"/><path d="M441.1 70.5L446.1 70.7" stroke="#262624" stroke-width="1.54"/><path d="M446.1 70.7L450.7 68.8" stroke="#262624" stroke-width="1.54"/><path d="M450.7 68.8L454.9 66.1" stroke="#262624" stroke-width="1.54"/><path d="M454.9 66.1L459.0 63.3" stroke="#262624" stroke-width="1.54"/><path d="M459.0 63.3L462.6 59.8" stroke="#262624" stroke-width="1.54"/><path d="M462.6 59.8L467.5 58.8" stroke="#262624" stroke-width="1.54"/><path d="M467.5 58.8L470.5 54.8" stroke="#262624" stroke-width="1.54"/><path d="M470.5 54.8L474.1 51.3" stroke="#262624" stroke-width="1.54"/><path d="M474.1 51.3L477.6 47.7" stroke="#262624" stroke-width="1.54"/><path d="M477.6 47.7L482.2 45.8" stroke="#262624" stroke-width="1.54"/><path d="M482.2 45.8L486.8 43.9" stroke="#262624" stroke-width="1.54"/><path d="M486.8 43.9L490.0 40.0" stroke="#262624" stroke-width="1.54"/><path d="M490.0 40.0L492.0 35.5" stroke="#262624" stroke-width="1.54"/><path d="M492.0 35.5L496.9 34.2" stroke="#262624" stroke-width="1.54"/><path d="M496.9 34.2L501.9 34.1" stroke="#262624" stroke-width="1.54"/><path d="M501.9 34.1L505.5 30.7" stroke="#262624" stroke-width="1.54"/><path d="M505.5 30.7L510.2 29.1" stroke="#262624" stroke-width="1.54"/><path d="M510.2 29.1L515.2 28.2" stroke="#262624" stroke-width="1.54"/><path d="M515.2 28.2L520.0 29.4" stroke="#262624" stroke-width="1.54"/><path d="M520.0 29.4L524.9 30.4" stroke="#262624" stroke-width="1.54"/><path d="M524.9 30.4L529.8 31.2" stroke="#262624" stroke-width="1.54"/><path d="M529.8 31.2L534.0 34.1" stroke="#262624" stroke-width="1.54"/><path d="M534.0 34.1L538.1 36.8" stroke="#262624" stroke-width="1.54"/><path d="M538.1 36.8L541.1 40.9" stroke="#262624" stroke-width="1.54"/><path d="M541.1 40.9L544.5 44.6" stroke="#262624" stroke-width="1.54"/><path d="M544.5 44.6L546.0 49.3" stroke="#262624" stroke-width="1.54"/><path d="M546.0 49.3L547.5 54.1" stroke="#262624" stroke-width="1.54"/><path d="M547.5 54.1L550.2 58.3" stroke="#262624" stroke-width="1.54"/><path d="M550.2 58.3L555.1 59.3" stroke="#262624" stroke-width="1.54"/><path d="M555.1 59.3L559.4 56.8" stroke="#262624" stroke-width="1.54"/><path d="M559.4 56.8L563.6 54.1" stroke="#262624" stroke-width="1.54"/><path d="M563.6 54.1L566.6 50.1" stroke="#262624" stroke-width="1.54"/><path d="M566.6 50.1L570.4 46.9" stroke="#262624" stroke-width="1.54"/><path d="M570.4 46.9L575.4 46.4" stroke="#262624" stroke-width="1.54"/><path d="M575.4 46.4L579.5 43.5" stroke="#262624" stroke-width="1.54"/><path d="M579.5 43.5L584.4 42.6" stroke="#262624" stroke-width="1.54"/><path d="M584.4 42.6L589.2 44.2" stroke="#262624" stroke-width="1.54"/><path d="M589.2 44.2L594.1 45.2" stroke="#262624" stroke-width="1.54"/><path d="M594.1 45.2L599.0 45.7" stroke="#262624" stroke-width="1.54"/><path d="M599.0 45.7L604.0 45.4" stroke="#262624" stroke-width="1.54"/><path d="M604.0 45.4L608.9 46.3" stroke="#262624" stroke-width="1.54"/><path d="M608.9 46.3L612.6 49.8" stroke="#262624" stroke-width="1.54"/><path d="M612.6 49.8L617.2 51.8" stroke="#262624" stroke-width="1.54"/><path d="M617.2 51.8L621.6 54.1" stroke="#262624" stroke-width="1.54"/><path d="M621.6 54.1L625.4 57.3" stroke="#262624" stroke-width="1.54"/><path d="M625.4 57.3L630.4 56.8" stroke="#262624" stroke-width="1.54"/><path d="M559.4 56.8L563.4 59.7" stroke="#262624" stroke-width="0.77"/><path d="M563.4 59.7L568.1 61.6" stroke="#262624" stroke-width="0.74"/><path d="M568.1 61.6L573.0 60.7" stroke="#262624" stroke-width="0.71"/><path d="M573.0 60.7L577.8 59.5" stroke="#262624" stroke-width="0.68"/><path d="M577.8 59.5L582.3 61.7" stroke="#262624" stroke-width="0.65"/><path d="M582.3 61.7L585.6 65.4" stroke="#262624" stroke-width="0.63"/><path d="M585.6 65.4L587.7 70.0" stroke="#262624" stroke-width="0.6"/><path d="M587.7 70.0L590.4 74.2" stroke="#262624" stroke-width="0.58"/><path d="M590.4 74.2L594.6 76.9" stroke="#262624" stroke-width="0.56"/><path d="M594.6 76.9L595.5 81.8" stroke="#262624" stroke-width="0.53"/><circle cx="16.0" cy="63.4" r="3.0" fill="#004fcc" stroke="none"/><path d="M4.0 4.0L12.0 4.0" stroke="#262624" stroke-width="0.75"/><path d="M4.0 4.0L4.0 12.0" stroke="#262624" stroke-width="0.75"/><path d="M636.0 4.0L628.0 4.0" stroke="#262624" stroke-width="0.75"/><path d="M636.0 4.0L636.0 12.0" stroke="#262624" stroke-width="0.75"/><path d="M4.0 116.0L12.0 116.0" stroke="#262624" stroke-width="0.75"/><path d="M4.0 116.0L4.0 108.0" stroke="#262624" stroke-width="0.75"/><path d="M636.0 116.0L628.0 116.0" stroke="#262624" stroke-width="0.75"/><path d="M636.0 116.0L636.0 108.0" stroke="#262624" stroke-width="0.75"/><text x="12.0" y="111.0" font-family="ui-monospace, 'IBM Plex Mono', Menlo, monospace" font-size="7.5" font-weight="400" letter-spacing="1" fill="#6b6a66" text-anchor="start" stroke="none">THEME IV · INCIDENTS</text></g></svg>
