<svg xmlns="http://www.w3.org/2000/svg" viewBox="0 0 680 400" width="680" height="400" role="img" aria-label="A network of protocols zooms in to its centre, the hard core, which most companies share: signing authority, spending limits, payment approval, access rights, change control, data out, output checks, audit trail."><defs><pattern id="h0" width="5" height="5" patternUnits="userSpaceOnUse" patternTransform="rotate(45)"><line x1="0" y1="0" x2="0" y2="5" stroke="#0f6e56" stroke-width="0.5"/></pattern><style>@keyframes mv{from{offset-distance:0%}to{offset-distance:100%}}@keyframes jit{0%,100%{transform:translate(0,0)}33%{transform:translate(1.6px,-1.2px)}66%{transform:translate(-1.2px,1.4px)}}@keyframes fade{0%,100%{opacity:0}12%,88%{opacity:1}}@keyframes grow{0%{stroke-dashoffset:1;opacity:1}35%{stroke-dashoffset:0}85%{opacity:1}100%{stroke-dashoffset:0;opacity:0}}@keyframes pop{0%,30%{opacity:0}40%,85%{opacity:1}100%{opacity:0}}.mv{offset-rotate:0deg;animation:mv var(--t) linear var(--d) infinite}.mvf{offset-rotate:0deg;animation:mv var(--t) linear var(--d) infinite,fade var(--t) linear var(--d) infinite}.jit{animation:jit var(--t) ease-in-out var(--d) infinite}.grow{stroke-dasharray:1;stroke-dashoffset:1;animation:grow var(--t) ease-out var(--d) infinite}.pop{opacity:0;animation:pop var(--t) linear var(--d) infinite}@media (prefers-reduced-motion:reduce){.mv,.mvf,.jit,.grow,.pop{animation:none}.mv,.mvf{offset-distance:50%}.grow{stroke-dashoffset:0}.pop{opacity:1}}@media (prefers-reduced-motion:reduce){.net{display:none!important}.core{opacity:1!important}}</style></defs><g fill="none" stroke-linecap="round" stroke-linejoin="round"><g transform="translate(340.0 200.0)"><g class="net"><animateTransform attributeName="transform" type="scale" values="1;1;6;6" keyTimes="0;.12;.34;1" dur="14s" repeatCount="indefinite" calcMode="spline" keySplines="0 0 1 1;.4 0 .6 1;0 0 1 1"/><animate attributeName="opacity" values="1;1;0;0" keyTimes="0;.34;.42;1" dur="14s" repeatCount="indefinite"/><g transform="translate(-340.0 -200.0)"><path d="M421.1 291.9L356.3 304.7" stroke="#262624" stroke-width=".5" opacity=".45"/><path d="M421.1 291.9L438.8 230.7" stroke="#262624" stroke-width=".5" opacity=".45"/><path d="M421.1 291.9L471.8 281.2" stroke="#262624" stroke-width=".5" opacity=".45"/><path d="M534.8 368.1L465.8 377.3" stroke="#262624" stroke-width=".5" opacity=".45"/><path d="M534.8 368.1L497.0 324.7" stroke="#262624" stroke-width=".5" opacity=".45"/><path d="M534.8 368.1L619.9 373.6" stroke="#262624" stroke-width=".5" opacity=".45"/><path d="M534.8 368.1L573.3 329.9" stroke="#262624" stroke-width=".5" opacity=".45"/><path d="M29.1 186.9L70.2 139.5" stroke="#262624" stroke-width=".5" opacity=".45"/><path d="M29.1 186.9L81.2 225.0" stroke="#262624" stroke-width=".5" opacity=".45"/><path d="M632.6 256.6L658.4 341.5" stroke="#262624" stroke-width=".5" opacity=".45"/><path d="M632.6 256.6L661.2 212.7" stroke="#262624" stroke-width=".5" opacity=".45"/><path d="M632.6 256.6L584.1 271.6" stroke="#262624" stroke-width=".5" opacity=".45"/><path d="M632.6 256.6L596.0 217.3" stroke="#262624" stroke-width=".5" opacity=".45"/><path d="M604.6 53.0L653.6 18.7" stroke="#262624" stroke-width=".5" opacity=".45"/><path d="M604.6 53.0L647.9 81.1" stroke="#262624" stroke-width=".5" opacity=".45"/><path d="M604.6 53.0L545.1 11.9" stroke="#262624" stroke-width=".5" opacity=".45"/><path d="M319.6 103.7L369.8 128.7" stroke="#262624" stroke-width=".5" opacity=".45"/><path d="M319.6 103.7L310.7 170.3" stroke="#262624" stroke-width=".5" opacity=".45"/><path d="M319.6 103.7L351.2 60.8" stroke="#262624" stroke-width=".5" opacity=".45"/><path d="M368.9 228.1L438.8 230.7" stroke="#262624" stroke-width=".5" opacity=".45"/><path d="M368.9 228.1L301.1 257.0" stroke="#262624" stroke-width=".5" opacity=".45"/><path d="M368.9 228.1L398.4 179.5" stroke="#262624" stroke-width=".5" opacity=".45"/><path d="M18.7 92.4L16.0 27.8" stroke="#262624" stroke-width=".5" opacity=".45"/><path d="M18.7 92.4L70.2 139.5" stroke="#262624" stroke-width=".5" opacity=".45"/><path d="M18.7 92.4L61.6 66.6" stroke="#262624" stroke-width=".5" opacity=".45"/><path d="M194.5 358.2L145.2 367.6" stroke="#262624" stroke-width=".5" opacity=".45"/><path d="M194.5 358.2L258.8 385.6" stroke="#262624" stroke-width=".5" opacity=".45"/><path d="M194.5 358.2L248.5 308.7" stroke="#262624" stroke-width=".5" opacity=".45"/><path d="M194.5 358.2L192.0 307.8" stroke="#262624" stroke-width=".5" opacity=".45"/><path d="M515.4 70.6L475.1 31.7" stroke="#262624" stroke-width=".5" opacity=".45"/><path d="M515.4 70.6L511.9 124.3" stroke="#262624" stroke-width=".5" opacity=".45"/><path d="M515.4 70.6L545.1 11.9" stroke="#262624" stroke-width=".5" opacity=".45"/><path d="M515.4 70.6L464.9 92.5" stroke="#262624" stroke-width=".5" opacity=".45"/><path d="M417.5 58.1L475.1 31.7" stroke="#262624" stroke-width=".5" opacity=".45"/><path d="M417.5 58.1L464.9 92.5" stroke="#262624" stroke-width=".5" opacity=".45"/><path d="M417.5 58.1L388.5 10.8" stroke="#262624" stroke-width=".5" opacity=".45"/><path d="M11.2 341.1L12.2 267.6" stroke="#262624" stroke-width=".5" opacity=".45"/><path d="M11.2 341.1L44.5 381.6" stroke="#262624" stroke-width=".5" opacity=".45"/><path d="M11.2 341.1L83.5 346.4" stroke="#262624" stroke-width=".5" opacity=".45"/><path d="M148.2 91.9L164.7 151.1" stroke="#262624" stroke-width=".5" opacity=".45"/><path d="M148.2 91.9L162.1 39.7" stroke="#262624" stroke-width=".5" opacity=".45"/><path d="M658.4 341.5L619.9 373.6" stroke="#262624" stroke-width=".5" opacity=".45"/><path d="M658.4 341.5L573.3 329.9" stroke="#262624" stroke-width=".5" opacity=".45"/><path d="M145.2 367.6L83.5 346.4" stroke="#262624" stroke-width=".5" opacity=".45"/><path d="M465.8 377.3L413.1 358.9" stroke="#262624" stroke-width=".5" opacity=".45"/><path d="M465.8 377.3L497.0 324.7" stroke="#262624" stroke-width=".5" opacity=".45"/><path d="M599.9 123.5L651.8 154.3" stroke="#262624" stroke-width=".5" opacity=".45"/><path d="M599.9 123.5L647.9 81.1" stroke="#262624" stroke-width=".5" opacity=".45"/><path d="M248.4 73.1L233.0 127.8" stroke="#262624" stroke-width=".5" opacity=".45"/><path d="M248.4 73.1L256.8 23.7" stroke="#262624" stroke-width=".5" opacity=".45"/><path d="M248.4 73.1L207.1 10.6" stroke="#262624" stroke-width=".5" opacity=".45"/><path d="M106.2 34.8L16.0 27.8" stroke="#262624" stroke-width=".5" opacity=".45"/><path d="M106.2 34.8L61.6 66.6" stroke="#262624" stroke-width=".5" opacity=".45"/><path d="M106.2 34.8L162.1 39.7" stroke="#262624" stroke-width=".5" opacity=".45"/><path d="M208.9 239.2L204.6 182.2" stroke="#262624" stroke-width=".5" opacity=".45"/><path d="M208.9 239.2L248.5 308.7" stroke="#262624" stroke-width=".5" opacity=".45"/><path d="M208.9 239.2L192.0 307.8" stroke="#262624" stroke-width=".5" opacity=".45"/><path d="M12.2 267.6L81.3 294.4" stroke="#262624" stroke-width=".5" opacity=".45"/><path d="M233.0 127.8L204.6 182.2" stroke="#262624" stroke-width=".5" opacity=".45"/><path d="M233.0 127.8L258.1 174.0" stroke="#262624" stroke-width=".5" opacity=".45"/><path d="M550.2 192.7L596.0 217.3" stroke="#262624" stroke-width=".5" opacity=".45"/><path d="M550.2 192.7L506.5 221.3" stroke="#262624" stroke-width=".5" opacity=".45"/><path d="M475.1 31.7L464.9 92.5" stroke="#262624" stroke-width=".5" opacity=".45"/><path d="M653.6 18.7L647.9 81.1" stroke="#262624" stroke-width=".5" opacity=".45"/><path d="M16.0 27.8L61.6 66.6" stroke="#262624" stroke-width=".5" opacity=".45"/><path d="M139.7 297.2L81.3 294.4" stroke="#262624" stroke-width=".5" opacity=".45"/><path d="M139.7 297.2L192.0 307.8" stroke="#262624" stroke-width=".5" opacity=".45"/><path d="M356.3 304.7L301.1 257.0" stroke="#262624" stroke-width=".5" opacity=".45"/><path d="M356.3 304.7L310.7 358.3" stroke="#262624" stroke-width=".5" opacity=".45"/><path d="M81.3 294.4L81.2 225.0" stroke="#262624" stroke-width=".5" opacity=".45"/><path d="M81.3 294.4L44.5 381.6" stroke="#262624" stroke-width=".5" opacity=".45"/><path d="M81.3 294.4L83.5 346.4" stroke="#262624" stroke-width=".5" opacity=".45"/><path d="M70.2 139.5L61.6 66.6" stroke="#262624" stroke-width=".5" opacity=".45"/><path d="M413.1 358.9L361.5 378.5" stroke="#262624" stroke-width=".5" opacity=".45"/><path d="M369.8 128.7L351.2 60.8" stroke="#262624" stroke-width=".5" opacity=".45"/><path d="M369.8 128.7L398.4 179.5" stroke="#262624" stroke-width=".5" opacity=".45"/><path d="M661.2 212.7L651.8 154.3" stroke="#262624" stroke-width=".5" opacity=".45"/><path d="M661.2 212.7L596.0 217.3" stroke="#262624" stroke-width=".5" opacity=".45"/><path d="M310.7 170.3L258.1 174.0" stroke="#262624" stroke-width=".5" opacity=".45"/><path d="M204.6 182.2L258.1 174.0" stroke="#262624" stroke-width=".5" opacity=".45"/><path d="M204.6 182.2L164.7 151.1" stroke="#262624" stroke-width=".5" opacity=".45"/><path d="M258.8 385.6L310.7 358.3" stroke="#262624" stroke-width=".5" opacity=".45"/><path d="M248.5 308.7L301.1 257.0" stroke="#262624" stroke-width=".5" opacity=".45"/><path d="M248.5 308.7L192.0 307.8" stroke="#262624" stroke-width=".5" opacity=".45"/><path d="M521.4 273.9L497.0 324.7" stroke="#262624" stroke-width=".5" opacity=".45"/><path d="M521.4 273.9L506.5 221.3" stroke="#262624" stroke-width=".5" opacity=".45"/><path d="M521.4 273.9L471.8 281.2" stroke="#262624" stroke-width=".5" opacity=".45"/><path d="M438.8 230.7L449.3 169.9" stroke="#262624" stroke-width=".5" opacity=".45"/><path d="M438.8 230.7L506.5 221.3" stroke="#262624" stroke-width=".5" opacity=".45"/><path d="M438.8 230.7L471.8 281.2" stroke="#262624" stroke-width=".5" opacity=".45"/><path d="M497.0 324.7L471.8 281.2" stroke="#262624" stroke-width=".5" opacity=".45"/><path d="M584.1 271.6L596.0 217.3" stroke="#262624" stroke-width=".5" opacity=".45"/><path d="M584.1 271.6L573.3 329.9" stroke="#262624" stroke-width=".5" opacity=".45"/><path d="M449.3 169.9L398.4 179.5" stroke="#262624" stroke-width=".5" opacity=".45"/><path d="M256.8 23.7L207.1 10.6" stroke="#262624" stroke-width=".5" opacity=".45"/><path d="M256.8 23.7L336.4 10.5" stroke="#262624" stroke-width=".5" opacity=".45"/><path d="M81.2 225.0L128.4 203.3" stroke="#262624" stroke-width=".5" opacity=".45"/><path d="M651.8 154.3L647.9 81.1" stroke="#262624" stroke-width=".5" opacity=".45"/><path d="M511.9 124.3L464.9 92.5" stroke="#262624" stroke-width=".5" opacity=".45"/><path d="M310.7 358.3L361.5 378.5" stroke="#262624" stroke-width=".5" opacity=".45"/><path d="M351.2 60.8L336.4 10.5" stroke="#262624" stroke-width=".5" opacity=".45"/><path d="M351.2 60.8L388.5 10.8" stroke="#262624" stroke-width=".5" opacity=".45"/><path d="M164.7 151.1L128.4 203.3" stroke="#262624" stroke-width=".5" opacity=".45"/><path d="M162.1 39.7L207.1 10.6" stroke="#262624" stroke-width=".5" opacity=".45"/><path d="M44.5 381.6L83.5 346.4" stroke="#262624" stroke-width=".5" opacity=".45"/><path d="M619.9 373.6L573.3 329.9" stroke="#262624" stroke-width=".5" opacity=".45"/><path d="M336.4 10.5L388.5 10.8" stroke="#262624" stroke-width=".5" opacity=".45"/><circle cx="421.1" cy="291.9" r="1.8" fill="#262624" opacity=".6"/><circle cx="534.8" cy="368.1" r="1.8" fill="#262624" opacity=".6"/><circle cx="29.1" cy="186.9" r="1.8" fill="#262624" opacity=".6"/><circle cx="632.6" cy="256.6" r="1.8" fill="#262624" opacity=".6"/><circle cx="604.6" cy="53.0" r="1.8" fill="#262624" opacity=".6"/><circle cx="319.6" cy="103.7" r="1.8" fill="#262624" opacity=".6"/><circle cx="368.9" cy="228.1" r="1.8" fill="#262624" opacity=".6"/><circle cx="18.7" cy="92.4" r="1.8" fill="#262624" opacity=".6"/><circle cx="194.5" cy="358.2" r="1.8" fill="#262624" opacity=".6"/><circle cx="515.4" cy="70.6" r="1.8" fill="#262624" opacity=".6"/><circle cx="417.5" cy="58.1" r="1.8" fill="#262624" opacity=".6"/><circle cx="11.2" cy="341.1" r="1.8" fill="#262624" opacity=".6"/><circle cx="148.2" cy="91.9" r="1.8" fill="#262624" opacity=".6"/><circle cx="658.4" cy="341.5" r="1.8" fill="#262624" opacity=".6"/><circle cx="145.2" cy="367.6" r="1.8" fill="#262624" opacity=".6"/><circle cx="465.8" cy="377.3" r="1.8" fill="#262624" opacity=".6"/><circle cx="599.9" cy="123.5" r="1.8" fill="#262624" opacity=".6"/><circle cx="248.4" cy="73.1" r="1.8" fill="#262624" opacity=".6"/><circle cx="106.2" cy="34.8" r="1.8" fill="#262624" opacity=".6"/><circle cx="208.9" cy="239.2" r="1.8" fill="#262624" opacity=".6"/><circle cx="12.2" cy="267.6" r="1.8" fill="#262624" opacity=".6"/><circle cx="233.0" cy="127.8" r="1.8" fill="#262624" opacity=".6"/><circle cx="550.2" cy="192.7" r="1.8" fill="#262624" opacity=".6"/><circle cx="475.1" cy="31.7" r="1.8" fill="#262624" opacity=".6"/><circle cx="653.6" cy="18.7" r="1.8" fill="#262624" opacity=".6"/><circle cx="16.0" cy="27.8" r="1.8" fill="#262624" opacity=".6"/><circle cx="139.7" cy="297.2" r="1.8" fill="#262624" opacity=".6"/><circle cx="356.3" cy="304.7" r="1.8" fill="#262624" opacity=".6"/><circle cx="81.3" cy="294.4" r="1.8" fill="#262624" opacity=".6"/><circle cx="70.2" cy="139.5" r="1.8" fill="#262624" opacity=".6"/><circle cx="413.1" cy="358.9" r="1.8" fill="#262624" opacity=".6"/><circle cx="369.8" cy="128.7" r="1.8" fill="#262624" opacity=".6"/><circle cx="61.6" cy="66.6" r="1.8" fill="#262624" opacity=".6"/><circle cx="661.2" cy="212.7" r="1.8" fill="#262624" opacity=".6"/><circle cx="310.7" cy="170.3" r="1.8" fill="#262624" opacity=".6"/><circle cx="204.6" cy="182.2" r="1.8" fill="#262624" opacity=".6"/><circle cx="258.8" cy="385.6" r="1.8" fill="#262624" opacity=".6"/><circle cx="248.5" cy="308.7" r="1.8" fill="#262624" opacity=".6"/><circle cx="521.4" cy="273.9" r="1.8" fill="#262624" opacity=".6"/><circle cx="438.8" cy="230.7" r="1.8" fill="#262624" opacity=".6"/><circle cx="497.0" cy="324.7" r="1.8" fill="#262624" opacity=".6"/><circle cx="584.1" cy="271.6" r="1.8" fill="#262624" opacity=".6"/><circle cx="449.3" cy="169.9" r="1.8" fill="#262624" opacity=".6"/><circle cx="301.1" cy="257.0" r="1.8" fill="#262624" opacity=".6"/><circle cx="256.8" cy="23.7" r="1.8" fill="#262624" opacity=".6"/><circle cx="81.2" cy="225.0" r="1.8" fill="#262624" opacity=".6"/><circle cx="258.1" cy="174.0" r="1.8" fill="#262624" opacity=".6"/><circle cx="651.8" cy="154.3" r="1.8" fill="#262624" opacity=".6"/><circle cx="511.9" cy="124.3" r="1.8" fill="#262624" opacity=".6"/><circle cx="310.7" cy="358.3" r="1.8" fill="#262624" opacity=".6"/><circle cx="596.0" cy="217.3" r="1.8" fill="#262624" opacity=".6"/><circle cx="351.2" cy="60.8" r="1.8" fill="#262624" opacity=".6"/><circle cx="164.7" cy="151.1" r="1.8" fill="#262624" opacity=".6"/><circle cx="162.1" cy="39.7" r="1.8" fill="#262624" opacity=".6"/><circle cx="128.4" cy="203.3" r="1.8" fill="#262624" opacity=".6"/><circle cx="506.5" cy="221.3" r="1.8" fill="#262624" opacity=".6"/><circle cx="361.5" cy="378.5" r="1.8" fill="#262624" opacity=".6"/><circle cx="44.5" cy="381.6" r="1.8" fill="#262624" opacity=".6"/><circle cx="647.9" cy="81.1" r="1.8" fill="#262624" opacity=".6"/><circle cx="619.9" cy="373.6" r="1.8" fill="#262624" opacity=".6"/><circle cx="545.1" cy="11.9" r="1.8" fill="#262624" opacity=".6"/><circle cx="192.0" cy="307.8" r="1.8" fill="#262624" opacity=".6"/><circle cx="207.1" cy="10.6" r="1.8" fill="#262624" opacity=".6"/><circle cx="336.4" cy="10.5" r="1.8" fill="#262624" opacity=".6"/><circle cx="464.9" cy="92.5" r="1.8" fill="#262624" opacity=".6"/><circle cx="573.3" cy="329.9" r="1.8" fill="#262624" opacity=".6"/><circle cx="83.5" cy="346.4" r="1.8" fill="#262624" opacity=".6"/><circle cx="388.5" cy="10.8" r="1.8" fill="#262624" opacity=".6"/><circle cx="398.4" cy="179.5" r="1.8" fill="#262624" opacity=".6"/><circle cx="471.8" cy="281.2" r="1.8" fill="#262624" opacity=".6"/><path d="M368.9 228.1L360.0 200.0" stroke="#262624" stroke-width=".5" opacity=".6"/><path d="M310.7 170.3L354.1 214.1" stroke="#262624" stroke-width=".5" opacity=".6"/><path d="M398.4 179.5L340.0 220.0" stroke="#262624" stroke-width=".5" opacity=".6"/><path d="M301.1 257.0L325.9 214.1" stroke="#262624" stroke-width=".5" opacity=".6"/><path d="M369.8 128.7L320.0 200.0" stroke="#262624" stroke-width=".5" opacity=".6"/><path d="M258.1 174.0L325.9 185.9" stroke="#262624" stroke-width=".5" opacity=".6"/><path d="M319.6 103.7L340.0 180.0" stroke="#262624" stroke-width=".5" opacity=".6"/><path d="M438.8 230.7L354.1 185.9" stroke="#262624" stroke-width=".5" opacity=".6"/><path d="M360.0 200.0 L354.1 214.1 L340.0 220.0 L325.9 214.1 L320.0 200.0 L325.9 185.9 L340.0 180.0 L354.1 185.9 Z" stroke="#0f6e56" stroke-width="1.2" fill="none"/><circle cx="360.0" cy="200.0" r="1.6" fill="#0f6e56"/><circle cx="354.1" cy="214.1" r="1.6" fill="#0f6e56"/><circle cx="340.0" cy="220.0" r="1.6" fill="#0f6e56"/><circle cx="325.9" cy="214.1" r="1.6" fill="#0f6e56"/><circle cx="320.0" cy="200.0" r="1.6" fill="#0f6e56"/><circle cx="325.9" cy="185.9" r="1.6" fill="#0f6e56"/><circle cx="340.0" cy="180.0" r="1.6" fill="#0f6e56"/><circle cx="354.1" cy="185.9" r="1.6" fill="#0f6e56"/></g></g></g><g class="core" opacity="0"><animate attributeName="opacity" values="0;0;1;1;0" keyTimes="0;.34;.44;.92;1" dur="14s" repeatCount="indefinite"/><circle cx="340.0" cy="200.0" r="132.0" stroke="#0f6e56" stroke-width="0.5" fill="none" stroke-dasharray="2 3"/><circle cx="340.0" cy="200.0" r="30.0" stroke="#0f6e56" stroke-width="1.8" fill="url(#h0)"/><text x="340.0" y="203.0" font-family="ui-monospace, 'IBM Plex Mono', Menlo, monospace" font-size="8.4" font-weight="500" letter-spacing="0.6" fill="#0f6e56" text-anchor="middle" stroke="none">HARD CORE</text><path d="M340.0 170.0L340.0 77.0" stroke="#0f6e56" stroke-width="0.75"/><circle cx="340.0" cy="68.0" r="9.0" stroke="#0f6e56" stroke-width="0.75" fill="#f9f8f5"/><text x="340.0" y="71.2" font-family="ui-monospace, 'IBM Plex Mono', Menlo, monospace" font-size="9.6" font-weight="500" letter-spacing="0" fill="#0f6e56" text-anchor="middle" stroke="none">1</text><text x="340.0" y="42.0" font-family="ui-monospace, 'IBM Plex Mono', Menlo, monospace" font-size="10.8" font-weight="500" letter-spacing="0.6" fill="#262624" text-anchor="middle" stroke="none">Signing authority</text><text x="340.0" y="54.0" font-family="ui-monospace, 'IBM Plex Mono', Menlo, monospace" font-size="9.0" font-weight="400" letter-spacing="0.6" fill="#6b6a66" text-anchor="middle" stroke="none">who can commit the company</text><path d="M361.2 178.8L427.0 113.0" stroke="#0f6e56" stroke-width="0.75"/><circle cx="433.3" cy="106.7" r="9.0" stroke="#0f6e56" stroke-width="0.75" fill="#f9f8f5"/><text x="433.3" y="109.9" font-family="ui-monospace, 'IBM Plex Mono', Menlo, monospace" font-size="9.6" font-weight="500" letter-spacing="0" fill="#0f6e56" text-anchor="middle" stroke="none">2</text><text x="449.3" y="104.7" font-family="ui-monospace, 'IBM Plex Mono', Menlo, monospace" font-size="10.8" font-weight="500" letter-spacing="0.6" fill="#262624" text-anchor="start" stroke="none">Spending limits</text><text x="449.3" y="116.7" font-family="ui-monospace, 'IBM Plex Mono', Menlo, monospace" font-size="9.0" font-weight="400" letter-spacing="0.6" fill="#6b6a66" text-anchor="start" stroke="none">how much, and by whom</text><path d="M370.0 200.0L463.0 200.0" stroke="#0f6e56" stroke-width="0.75"/><circle cx="472.0" cy="200.0" r="9.0" stroke="#0f6e56" stroke-width="0.75" fill="#f9f8f5"/><text x="472.0" y="203.2" font-family="ui-monospace, 'IBM Plex Mono', Menlo, monospace" font-size="9.6" font-weight="500" letter-spacing="0" fill="#0f6e56" text-anchor="middle" stroke="none">3</text><text x="488.0" y="198.0" font-family="ui-monospace, 'IBM Plex Mono', Menlo, monospace" font-size="10.8" font-weight="500" letter-spacing="0.6" fill="#262624" text-anchor="start" stroke="none">Payment approval</text><text x="488.0" y="210.0" font-family="ui-monospace, 'IBM Plex Mono', Menlo, monospace" font-size="9.0" font-weight="400" letter-spacing="0.6" fill="#6b6a66" text-anchor="start" stroke="none">who may move money</text><path d="M361.2 221.2L427.0 287.0" stroke="#0f6e56" stroke-width="0.75"/><circle cx="433.3" cy="293.3" r="9.0" stroke="#0f6e56" stroke-width="0.75" fill="#f9f8f5"/><text x="433.3" y="296.5" font-family="ui-monospace, 'IBM Plex Mono', Menlo, monospace" font-size="9.6" font-weight="500" letter-spacing="0" fill="#0f6e56" text-anchor="middle" stroke="none">4</text><text x="449.3" y="291.3" font-family="ui-monospace, 'IBM Plex Mono', Menlo, monospace" font-size="10.8" font-weight="500" letter-spacing="0.6" fill="#262624" text-anchor="start" stroke="none">Access rights</text><text x="449.3" y="303.3" font-family="ui-monospace, 'IBM Plex Mono', Menlo, monospace" font-size="9.0" font-weight="400" letter-spacing="0.6" fill="#6b6a66" text-anchor="start" stroke="none">who and what sees what</text><path d="M340.0 230.0L340.0 323.0" stroke="#0f6e56" stroke-width="0.75"/><circle cx="340.0" cy="332.0" r="9.0" stroke="#0f6e56" stroke-width="0.75" fill="#f9f8f5"/><text x="340.0" y="335.2" font-family="ui-monospace, 'IBM Plex Mono', Menlo, monospace" font-size="9.6" font-weight="500" letter-spacing="0" fill="#0f6e56" text-anchor="middle" stroke="none">5</text><text x="340.0" y="356.0" font-family="ui-monospace, 'IBM Plex Mono', Menlo, monospace" font-size="10.8" font-weight="500" letter-spacing="0.6" fill="#262624" text-anchor="middle" stroke="none">Change control</text><text x="340.0" y="368.0" font-family="ui-monospace, 'IBM Plex Mono', Menlo, monospace" font-size="9.0" font-weight="400" letter-spacing="0.6" fill="#6b6a66" text-anchor="middle" stroke="none">nothing ships unreviewed</text><path d="M318.8 221.2L253.0 287.0" stroke="#0f6e56" stroke-width="0.75"/><circle cx="246.7" cy="293.3" r="9.0" stroke="#0f6e56" stroke-width="0.75" fill="#f9f8f5"/><text x="246.7" y="296.5" font-family="ui-monospace, 'IBM Plex Mono', Menlo, monospace" font-size="9.6" font-weight="500" letter-spacing="0" fill="#0f6e56" text-anchor="middle" stroke="none">6</text><text x="230.7" y="291.3" font-family="ui-monospace, 'IBM Plex Mono', Menlo, monospace" font-size="10.8" font-weight="500" letter-spacing="0.6" fill="#262624" text-anchor="end" stroke="none">Data out</text><text x="230.7" y="303.3" font-family="ui-monospace, 'IBM Plex Mono', Menlo, monospace" font-size="9.0" font-weight="400" letter-spacing="0.6" fill="#6b6a66" text-anchor="end" stroke="none">what may leave the company</text><path d="M310.0 200.0L217.0 200.0" stroke="#0f6e56" stroke-width="0.75"/><circle cx="208.0" cy="200.0" r="9.0" stroke="#0f6e56" stroke-width="0.75" fill="#f9f8f5"/><text x="208.0" y="203.2" font-family="ui-monospace, 'IBM Plex Mono', Menlo, monospace" font-size="9.6" font-weight="500" letter-spacing="0" fill="#0f6e56" text-anchor="middle" stroke="none">7</text><text x="192.0" y="198.0" font-family="ui-monospace, 'IBM Plex Mono', Menlo, monospace" font-size="10.8" font-weight="500" letter-spacing="0.6" fill="#262624" text-anchor="end" stroke="none">Output checks</text><text x="192.0" y="210.0" font-family="ui-monospace, 'IBM Plex Mono', Menlo, monospace" font-size="9.0" font-weight="400" letter-spacing="0.6" fill="#6b6a66" text-anchor="end" stroke="none">tests every result must pass</text><path d="M318.8 178.8L253.0 113.0" stroke="#0f6e56" stroke-width="0.75"/><circle cx="246.7" cy="106.7" r="9.0" stroke="#0f6e56" stroke-width="0.75" fill="#f9f8f5"/><text x="246.7" y="109.9" font-family="ui-monospace, 'IBM Plex Mono', Menlo, monospace" font-size="9.6" font-weight="500" letter-spacing="0" fill="#0f6e56" text-anchor="middle" stroke="none">8</text><text x="230.7" y="104.7" font-family="ui-monospace, 'IBM Plex Mono', Menlo, monospace" font-size="10.8" font-weight="500" letter-spacing="0.6" fill="#262624" text-anchor="end" stroke="none">Audit trail</text><text x="230.7" y="116.7" font-family="ui-monospace, 'IBM Plex Mono', Menlo, monospace" font-size="9.0" font-weight="400" letter-spacing="0.6" fill="#6b6a66" text-anchor="end" stroke="none">every action, with its reason</text></g></g></svg>
