<svg xmlns="http://www.w3.org/2000/svg" viewBox="0 0 720 300" width="720" height="300" role="img" aria-label="A chart sketch: as agents grow from one to a hundred thousand, the steps a process must specify climb past what any manager can approve, while the protocol's hard rules stay flat."><g fill="none" stroke-linecap="round" stroke-linejoin="round"><path d="M86.0 238.0L680.0 238.0" stroke="#262624" stroke-width="0.75"/><path d="M86.0 238.0L86.0 40.0" stroke="#262624" stroke-width="0.75"/><path d="M680.0 238.0L674.6 240.6" stroke="#262624" stroke-width="0.75"/><path d="M680.0 238.0L674.6 235.4" stroke="#262624" stroke-width="0.75"/><path d="M86.0 40.0L88.6 45.4" stroke="#262624" stroke-width="0.75"/><path d="M86.0 40.0L83.4 45.4" stroke="#262624" stroke-width="0.75"/><path d="M106.0 238.0L106.0 243.0" stroke="#262624" stroke-width="0.5"/><path d="M106.0 238.0L106.0 50.0" stroke="#c9c7c0" stroke-width="0.5" stroke-dasharray="1 3"/><text x="106.0" y="255.0" font-family="ui-monospace, 'IBM Plex Mono', Menlo, monospace" font-size="10.4" font-weight="400" letter-spacing="0.6" fill="#6b6a66" text-anchor="middle" stroke="none">1</text><path d="M214.8 238.0L214.8 243.0" stroke="#262624" stroke-width="0.5"/><path d="M214.8 238.0L214.8 50.0" stroke="#c9c7c0" stroke-width="0.5" stroke-dasharray="1 3"/><text x="214.8" y="255.0" font-family="ui-monospace, 'IBM Plex Mono', Menlo, monospace" font-size="10.4" font-weight="400" letter-spacing="0.6" fill="#6b6a66" text-anchor="middle" stroke="none">10</text><path d="M323.6 238.0L323.6 243.0" stroke="#262624" stroke-width="0.5"/><path d="M323.6 238.0L323.6 50.0" stroke="#c9c7c0" stroke-width="0.5" stroke-dasharray="1 3"/><text x="323.6" y="255.0" font-family="ui-monospace, 'IBM Plex Mono', Menlo, monospace" font-size="10.4" font-weight="400" letter-spacing="0.6" fill="#6b6a66" text-anchor="middle" stroke="none">100</text><path d="M432.4 238.0L432.4 243.0" stroke="#262624" stroke-width="0.5"/><path d="M432.4 238.0L432.4 50.0" stroke="#c9c7c0" stroke-width="0.5" stroke-dasharray="1 3"/><text x="432.4" y="255.0" font-family="ui-monospace, 'IBM Plex Mono', Menlo, monospace" font-size="10.4" font-weight="400" letter-spacing="0.6" fill="#6b6a66" text-anchor="middle" stroke="none">1K</text><path d="M541.2 238.0L541.2 243.0" stroke="#262624" stroke-width="0.5"/><path d="M541.2 238.0L541.2 50.0" stroke="#c9c7c0" stroke-width="0.5" stroke-dasharray="1 3"/><text x="541.2" y="255.0" font-family="ui-monospace, 'IBM Plex Mono', Menlo, monospace" font-size="10.4" font-weight="400" letter-spacing="0.6" fill="#6b6a66" text-anchor="middle" stroke="none">10K</text><path d="M650.0 238.0L650.0 243.0" stroke="#262624" stroke-width="0.5"/><path d="M650.0 238.0L650.0 50.0" stroke="#c9c7c0" stroke-width="0.5" stroke-dasharray="1 3"/><text x="650.0" y="255.0" font-family="ui-monospace, 'IBM Plex Mono', Menlo, monospace" font-size="10.4" font-weight="400" letter-spacing="0.6" fill="#6b6a66" text-anchor="middle" stroke="none">100K</text><text x="383.0" y="272.0" font-family="ui-monospace, 'IBM Plex Mono', Menlo, monospace" font-size="10.4" font-weight="500" letter-spacing="1.2" fill="#262624" text-anchor="middle" stroke="none">AGENTS AT WORK</text><text x="34" y="139.0" font-family="ui-monospace, 'IBM Plex Mono', Menlo, monospace" font-size="8" font-weight="500" letter-spacing="1.2" fill="#262624" text-anchor="middle" stroke="none" transform="rotate(-90 34 139.0)">TO SPECIFY</text><path d="M106.0 224.0L115.1 223.6L124.1 223.1L133.2 222.7L142.3 222.2L151.3 221.7L160.4 221.1L169.5 220.6L178.5 220.0L187.6 219.3L196.7 218.7L205.7 218.0L214.8 217.2L223.9 216.4L232.9 215.6L242.0 214.7L251.1 213.8L260.1 212.8L269.2 211.8L278.3 210.7L287.3 209.6L296.4 208.4L305.5 207.1L314.5 205.8L323.6 204.4L332.7 202.9L341.7 201.3L350.8 199.6L359.9 197.9L368.9 196.0L378.0 194.1L387.1 192.0L396.1 189.9L405.2 187.6L414.3 185.2L423.3 182.6L432.4 180.0L441.5 177.1L450.5 174.2L459.6 171.0L468.7 167.7L477.7 164.2L486.8 160.5L495.9 156.6L504.9 152.5L514.0 148.2L523.1 143.6L532.1 138.8L541.2 133.7L550.3 128.4L559.3 122.7L568.4 116.7L577.5 110.4L586.5 103.8L595.6 96.8L604.7 89.4L613.7 81.6L622.8 73.4L631.9 64.8L640.9 55.6L650.0 46.0" stroke="#262624" stroke-width="1.1" fill="none"/><path d="M106.0 208.0L160.4 207.4L214.8 206.8L269.2 206.2L323.6 205.6L378.0 205.0L432.4 204.4L486.8 203.8L541.2 203.2L595.6 202.6L650.0 202.0" stroke="#004fcc" stroke-width="1.1" fill="none"/><path d="M86.0 154.8L670.0 154.8" stroke="#6b6a66" stroke-width="0.5" stroke-dasharray="6 4"/><text x="94.0" y="148.8" font-family="ui-monospace, 'IBM Plex Mono', Menlo, monospace" font-size="9.75" font-weight="400" letter-spacing="1" fill="#6b6a66" text-anchor="start" stroke="none">WHAT ANY MANAGER CAN APPROVE</text><circle cx="495.9" cy="156.6" r="5.0" stroke="#262624" stroke-width="0.75" fill="none"/><path d="M425.9 112.6L495.9 156.6" stroke="#262624" stroke-width="0.5"/><circle cx="495.9" cy="156.6" r="1.6" fill="#262624" stroke="none"/><circle cx="425.9" cy="112.6" r="7.5" stroke="#262624" stroke-width="0.75" fill="#ffffff"/><text x="425.9" y="115.6" font-family="ui-monospace, 'IBM Plex Mono', Menlo, monospace" font-size="11.05" font-weight="500" letter-spacing="0" fill="#262624" text-anchor="middle" stroke="none">1</text><text x="414.9" y="115.6" font-family="ui-monospace, 'IBM Plex Mono', Menlo, monospace" font-size="11.05" font-weight="400" letter-spacing="0.6" fill="#262624" text-anchor="end" stroke="none">THE APPROVAL QUEUE BREAKS</text><text x="642.0" y="50.0" font-family="ui-monospace, 'IBM Plex Mono', Menlo, monospace" font-size="10.4" font-weight="600" letter-spacing="1" fill="#262624" text-anchor="end" stroke="none">PROCESS · STEPS</text><text x="650.0" y="193.0" font-family="ui-monospace, 'IBM Plex Mono', Menlo, monospace" font-size="10.4" font-weight="600" letter-spacing="1" fill="#004fcc" text-anchor="end" stroke="none">PROTOCOL · HARD RULES</text><rect x="6.0" y="6.0" width="708.0" height="288.0" stroke="#c9c7c0" stroke-width="0.5" fill="none"/><path d="M6.0 6.0L16.0 6.0" stroke="#262624" stroke-width="0.75"/><path d="M6.0 6.0L6.0 16.0" stroke="#262624" stroke-width="0.75"/><path d="M714.0 6.0L704.0 6.0" stroke="#262624" stroke-width="0.75"/><path d="M714.0 6.0L714.0 16.0" stroke="#262624" stroke-width="0.75"/><path d="M6.0 294.0L16.0 294.0" stroke="#262624" stroke-width="0.75"/><path d="M6.0 294.0L6.0 284.0" stroke="#262624" stroke-width="0.75"/><path d="M714.0 294.0L704.0 294.0" stroke="#262624" stroke-width="0.75"/><path d="M714.0 294.0L714.0 284.0" stroke="#262624" stroke-width="0.75"/><rect x="511.0" y="278.0" width="203.0" height="16.0" stroke="#262624" stroke-width="0.5" fill="#ffffff"/><path d="M565.0 278.0L565.0 294.0" stroke="#262624" stroke-width="0.5"/><path d="M676.0 278.0L676.0 294.0" stroke="#262624" stroke-width="0.5"/><text x="517.0" y="289.0" font-family="ui-monospace, 'IBM Plex Mono', Menlo, monospace" font-size="7.5" font-weight="500" letter-spacing="0.6" fill="#262624" text-anchor="start" stroke="none">FIG 32</text><text x="571.0" y="289.0" font-family="ui-monospace, 'IBM Plex Mono', Menlo, monospace" font-size="7.5" font-weight="400" letter-spacing="0.6" fill="#262624" text-anchor="start" stroke="none">STEPS AND RULES</text><text x="682.0" y="289.0" font-family="ui-monospace, 'IBM Plex Mono', Menlo, monospace" font-size="7.5" font-weight="400" letter-spacing="0.6" fill="#6b6a66" text-anchor="start" stroke="none">NTS</text></g></svg>
