<svg xmlns="http://www.w3.org/2000/svg" viewBox="0 0 320 140" role="img" aria-label="A log of entries being published to many readers"><rect width="320" height="140" rx="10" fill="#ecf6f2"/><line x1="28" y1="22" x2="102.3" y2="22" stroke="#0f6e56" stroke-opacity="0.35" stroke-width="3" stroke-linecap="round"/><circle cx="22.0" cy="22.0" r="1.80" fill="#0f6e56" fill-opacity="0.80"/><line x1="28" y1="34" x2="120.7" y2="34" stroke="#0f6e56" stroke-opacity="0.41" stroke-width="3" stroke-linecap="round"/><circle cx="22.0" cy="34.0" r="1.80" fill="#0f6e56" fill-opacity="0.80"/><line x1="28" y1="46" x2="110.2" y2="46" stroke="#0f6e56" stroke-opacity="0.47" stroke-width="3" stroke-linecap="round"/><circle cx="22.0" cy="46.0" r="1.80" fill="#0f6e56" fill-opacity="0.80"/><line x1="28" y1="58" x2="124.2" y2="58" stroke="#0f6e56" stroke-opacity="0.53" stroke-width="3" stroke-linecap="round"/><circle cx="22.0" cy="58.0" r="1.80" fill="#0f6e56" fill-opacity="0.80"/><line x1="28" y1="70" x2="125.5" y2="70" stroke="#0f6e56" stroke-opacity="0.59" stroke-width="3" stroke-linecap="round"/><circle cx="22.0" cy="70.0" r="1.80" fill="#0f6e56" fill-opacity="0.80"/><line x1="28" y1="82" x2="91.9" y2="82" stroke="#0f6e56" stroke-opacity="0.65" stroke-width="3" stroke-linecap="round"/><circle cx="22.0" cy="82.0" r="1.80" fill="#0f6e56" fill-opacity="0.80"/><line x1="28" y1="94" x2="88.8" y2="94" stroke="#0f6e56" stroke-opacity="0.71" stroke-width="3" stroke-linecap="round"/><circle cx="22.0" cy="94.0" r="1.80" fill="#0f6e56" fill-opacity="0.80"/><line x1="28" y1="106" x2="138.2" y2="106" stroke="#0f6e56" stroke-opacity="0.77" stroke-width="3" stroke-linecap="round"/><circle cx="22.0" cy="106.0" r="1.80" fill="#0f6e56" fill-opacity="0.80"/><line x1="28" y1="118" x2="103.6" y2="118" stroke="#0f6e56" stroke-opacity="0.83" stroke-width="3" stroke-linecap="round"/><circle cx="22.0" cy="118.0" r="1.80" fill="#0f6e56" fill-opacity="0.80"/><circle cx="186.8" cy="57.1" r="1.10" fill="#0f6e56" fill-opacity="0.66"/><circle cx="226.7" cy="94.7" r="1.10" fill="#0f6e56" fill-opacity="0.54"/><circle cx="192.5" cy="58.0" r="1.10" fill="#0f6e56" fill-opacity="0.65"/><circle cx="263.8" cy="120.9" r="1.10" fill="#0f6e56" fill-opacity="0.42"/><circle cx="182.3" cy="37.8" r="1.10" fill="#0f6e56" fill-opacity="0.68"/><circle cx="275.3" cy="34.3" r="1.10" fill="#0f6e56" fill-opacity="0.38"/><circle cx="226.2" cy="65.0" r="1.10" fill="#0f6e56" fill-opacity="0.54"/><circle cx="215.3" cy="68.7" r="1.10" fill="#0f6e56" fill-opacity="0.57"/><circle cx="295.0" cy="108.0" r="1.10" fill="#0f6e56" fill-opacity="0.32"/><circle cx="179.0" cy="28.4" r="1.10" fill="#0f6e56" fill-opacity="0.69"/><circle cx="196.1" cy="52.4" r="1.10" fill="#0f6e56" fill-opacity="0.63"/><circle cx="219.0" cy="52.5" r="1.10" fill="#0f6e56" fill-opacity="0.56"/><circle cx="240.4" cy="74.7" r="1.10" fill="#0f6e56" fill-opacity="0.49"/><circle cx="286.6" cy="57.2" r="1.10" fill="#0f6e56" fill-opacity="0.34"/><circle cx="279.9" cy="66.4" r="1.10" fill="#0f6e56" fill-opacity="0.36"/><circle cx="257.8" cy="50.4" r="1.10" fill="#0f6e56" fill-opacity="0.44"/><circle cx="295.0" cy="101.8" r="1.10" fill="#0f6e56" fill-opacity="0.32"/><circle cx="248.6" cy="49.2" r="1.10" fill="#0f6e56" fill-opacity="0.47"/><circle cx="199.9" cy="85.7" r="1.10" fill="#0f6e56" fill-opacity="0.62"/><circle cx="172.4" cy="108.5" r="1.10" fill="#0f6e56" fill-opacity="0.71"/><circle cx="217.5" cy="44.6" r="1.10" fill="#0f6e56" fill-opacity="0.57"/><circle cx="282.2" cy="100.5" r="1.10" fill="#0f6e56" fill-opacity="0.36"/><circle cx="244.7" cy="33.2" r="1.10" fill="#0f6e56" fill-opacity="0.48"/><circle cx="237.1" cy="66.1" r="1.10" fill="#0f6e56" fill-opacity="0.50"/><circle cx="230.8" cy="81.3" r="1.10" fill="#0f6e56" fill-opacity="0.52"/><circle cx="175.1" cy="35.3" r="1.10" fill="#0f6e56" fill-opacity="0.70"/><circle cx="164.4" cy="118.7" r="1.10" fill="#0f6e56" fill-opacity="0.74"/><circle cx="181.9" cy="75.9" r="1.10" fill="#0f6e56" fill-opacity="0.68"/><circle cx="297.2" cy="27.0" r="1.10" fill="#0f6e56" fill-opacity="0.31"/><circle cx="285.5" cy="70.2" r="1.10" fill="#0f6e56" fill-opacity="0.35"/><circle cx="212.7" cy="98.0" r="1.10" fill="#0f6e56" fill-opacity="0.58"/><circle cx="174.4" cy="112.6" r="1.10" fill="#0f6e56" fill-opacity="0.70"/><circle cx="198.0" cy="104.6" r="1.10" fill="#0f6e56" fill-opacity="0.63"/><circle cx="221.2" cy="56.1" r="1.10" fill="#0f6e56" fill-opacity="0.55"/><circle cx="233.0" cy="68.1" r="1.10" fill="#0f6e56" fill-opacity="0.52"/><circle cx="298.2" cy="84.7" r="1.10" fill="#0f6e56" fill-opacity="0.31"/><circle cx="162.8" cy="78.3" r="1.10" fill="#0f6e56" fill-opacity="0.74"/><circle cx="248.7" cy="17.9" r="1.10" fill="#0f6e56" fill-opacity="0.46"/><circle cx="225.3" cy="75.1" r="1.10" fill="#0f6e56" fill-opacity="0.54"/><circle cx="263.3" cy="55.0" r="1.10" fill="#0f6e56" fill-opacity="0.42"/><circle cx="242.5" cy="34.8" r="1.10" fill="#0f6e56" fill-opacity="0.48"/><circle cx="195.2" cy="80.5" r="1.10" fill="#0f6e56" fill-opacity="0.64"/><circle cx="201.8" cy="97.7" r="1.10" fill="#0f6e56" fill-opacity="0.62"/><circle cx="203.8" cy="45.2" r="1.10" fill="#0f6e56" fill-opacity="0.61"/><circle cx="278.1" cy="75.4" r="1.10" fill="#0f6e56" fill-opacity="0.37"/><circle cx="268.1" cy="76.1" r="1.10" fill="#0f6e56" fill-opacity="0.40"/><circle cx="296.0" cy="33.5" r="1.10" fill="#0f6e56" fill-opacity="0.31"/><circle cx="191.2" cy="110.6" r="1.10" fill="#0f6e56" fill-opacity="0.65"/><circle cx="193.4" cy="73.2" r="1.10" fill="#0f6e56" fill-opacity="0.64"/><circle cx="174.3" cy="40.3" r="1.10" fill="#0f6e56" fill-opacity="0.70"/><circle cx="292.9" cy="70.9" r="1.10" fill="#0f6e56" fill-opacity="0.32"/><circle cx="171.2" cy="43.8" r="1.10" fill="#0f6e56" fill-opacity="0.71"/><circle cx="283.9" cy="47.6" r="1.10" fill="#0f6e56" fill-opacity="0.35"/><circle cx="164.7" cy="35.2" r="1.10" fill="#0f6e56" fill-opacity="0.73"/><circle cx="204.1" cy="65.6" r="1.10" fill="#0f6e56" fill-opacity="0.61"/><circle cx="207.6" cy="59.0" r="1.10" fill="#0f6e56" fill-opacity="0.60"/><circle cx="272.9" cy="38.5" r="1.10" fill="#0f6e56" fill-opacity="0.39"/><circle cx="232.6" cy="75.8" r="1.10" fill="#0f6e56" fill-opacity="0.52"/><circle cx="225.1" cy="63.2" r="1.10" fill="#0f6e56" fill-opacity="0.54"/><circle cx="165.0" cy="91.4" r="1.10" fill="#0f6e56" fill-opacity="0.73"/><circle cx="181.8" cy="107.3" r="1.10" fill="#0f6e56" fill-opacity="0.68"/><circle cx="220.8" cy="111.5" r="1.10" fill="#0f6e56" fill-opacity="0.55"/><circle cx="164.5" cy="52.3" r="1.10" fill="#0f6e56" fill-opacity="0.74"/><circle cx="294.9" cy="111.8" r="1.10" fill="#0f6e56" fill-opacity="0.32"/><circle cx="207.7" cy="112.8" r="1.10" fill="#0f6e56" fill-opacity="0.60"/><circle cx="176.8" cy="72.0" r="1.10" fill="#0f6e56" fill-opacity="0.70"/><circle cx="166.3" cy="63.1" r="1.10" fill="#0f6e56" fill-opacity="0.73"/><circle cx="285.5" cy="43.4" r="1.10" fill="#0f6e56" fill-opacity="0.35"/><circle cx="240.8" cy="113.1" r="1.10" fill="#0f6e56" fill-opacity="0.49"/><circle cx="230.4" cy="52.0" r="1.10" fill="#0f6e56" fill-opacity="0.52"/><circle cx="252.8" cy="44.2" r="1.10" fill="#0f6e56" fill-opacity="0.45"/><circle cx="207.8" cy="36.7" r="1.10" fill="#0f6e56" fill-opacity="0.60"/><circle cx="296.1" cy="30.4" r="1.10" fill="#0f6e56" fill-opacity="0.31"/><circle cx="209.3" cy="23.2" r="1.10" fill="#0f6e56" fill-opacity="0.59"/><circle cx="177.1" cy="60.6" r="1.10" fill="#0f6e56" fill-opacity="0.70"/><circle cx="270.8" cy="55.2" r="1.10" fill="#0f6e56" fill-opacity="0.39"/><circle cx="275.3" cy="80.3" r="1.10" fill="#0f6e56" fill-opacity="0.38"/><circle cx="167.0" cy="93.8" r="1.10" fill="#0f6e56" fill-opacity="0.73"/><circle cx="194.8" cy="62.9" r="1.10" fill="#0f6e56" fill-opacity="0.64"/><circle cx="226.2" cy="19.7" r="1.10" fill="#0f6e56" fill-opacity="0.54"/><circle cx="280.0" cy="37.4" r="1.10" fill="#0f6e56" fill-opacity="0.36"/><circle cx="169.6" cy="21.8" r="1.10" fill="#0f6e56" fill-opacity="0.72"/><circle cx="279.6" cy="56.7" r="1.10" fill="#0f6e56" fill-opacity="0.37"/><circle cx="182.0" cy="85.1" r="1.10" fill="#0f6e56" fill-opacity="0.68"/><circle cx="209.2" cy="30.4" r="1.10" fill="#0f6e56" fill-opacity="0.59"/><circle cx="197.1" cy="72.1" r="1.10" fill="#0f6e56" fill-opacity="0.63"/><circle cx="220.0" cy="80.9" r="1.10" fill="#0f6e56" fill-opacity="0.56"/><circle cx="271.3" cy="88.5" r="1.10" fill="#0f6e56" fill-opacity="0.39"/><circle cx="166.0" cy="40.9" r="1.10" fill="#0f6e56" fill-opacity="0.73"/><circle cx="213.2" cy="115.4" r="1.10" fill="#0f6e56" fill-opacity="0.58"/><circle cx="247.2" cy="18.9" r="1.10" fill="#0f6e56" fill-opacity="0.47"/><circle cx="266.4" cy="103.7" r="1.10" fill="#0f6e56" fill-opacity="0.41"/><circle cx="218.9" cy="75.9" r="1.10" fill="#0f6e56" fill-opacity="0.56"/><circle cx="190.6" cy="51.2" r="1.10" fill="#0f6e56" fill-opacity="0.65"/><circle cx="257.3" cy="86.0" r="1.10" fill="#0f6e56" fill-opacity="0.44"/><circle cx="178.3" cy="95.5" r="1.10" fill="#0f6e56" fill-opacity="0.69"/><circle cx="291.1" cy="5.1" r="1.10" fill="#0f6e56" fill-opacity="0.33"/><circle cx="177.0" cy="78.2" r="1.10" fill="#0f6e56" fill-opacity="0.70"/><circle cx="291.5" cy="40.9" r="1.10" fill="#0f6e56" fill-opacity="0.33"/><circle cx="270.9" cy="68.2" r="1.10" fill="#0f6e56" fill-opacity="0.39"/><circle cx="262.7" cy="35.7" r="1.10" fill="#0f6e56" fill-opacity="0.42"/><circle cx="226.3" cy="27.7" r="1.10" fill="#0f6e56" fill-opacity="0.54"/><circle cx="268.4" cy="69.1" r="1.10" fill="#0f6e56" fill-opacity="0.40"/><circle cx="252.3" cy="44.3" r="1.10" fill="#0f6e56" fill-opacity="0.45"/><circle cx="185.1" cy="105.0" r="1.10" fill="#0f6e56" fill-opacity="0.67"/><circle cx="163.6" cy="35.3" r="1.10" fill="#0f6e56" fill-opacity="0.74"/><circle cx="254.3" cy="63.4" r="1.10" fill="#0f6e56" fill-opacity="0.45"/><circle cx="271.8" cy="29.9" r="1.10" fill="#0f6e56" fill-opacity="0.39"/><circle cx="299.5" cy="12.8" r="1.10" fill="#0f6e56" fill-opacity="0.30"/><circle cx="174.9" cy="56.0" r="1.10" fill="#0f6e56" fill-opacity="0.70"/><circle cx="290.8" cy="63.6" r="1.10" fill="#0f6e56" fill-opacity="0.33"/><circle cx="275.9" cy="59.4" r="1.10" fill="#0f6e56" fill-opacity="0.38"/><circle cx="299.8" cy="46.8" r="1.10" fill="#0f6e56" fill-opacity="0.30"/><circle cx="195.4" cy="84.8" r="1.10" fill="#0f6e56" fill-opacity="0.64"/><circle cx="291.4" cy="33.0" r="1.10" fill="#0f6e56" fill-opacity="0.33"/><circle cx="230.0" cy="78.0" r="1.10" fill="#0f6e56" fill-opacity="0.52"/><circle cx="278.1" cy="107.1" r="1.10" fill="#0f6e56" fill-opacity="0.37"/><circle cx="256.0" cy="102.9" r="1.10" fill="#0f6e56" fill-opacity="0.44"/><circle cx="250.0" cy="58.6" r="1.10" fill="#0f6e56" fill-opacity="0.46"/><circle cx="229.7" cy="35.8" r="1.10" fill="#0f6e56" fill-opacity="0.53"/><circle cx="288.3" cy="71.5" r="1.10" fill="#0f6e56" fill-opacity="0.34"/><circle cx="179.1" cy="46.5" r="1.10" fill="#0f6e56" fill-opacity="0.69"/><circle cx="180.5" cy="44.8" r="1.10" fill="#0f6e56" fill-opacity="0.68"/><circle cx="293.5" cy="96.9" r="1.10" fill="#0f6e56" fill-opacity="0.32"/><circle cx="254.0" cy="83.6" r="1.10" fill="#0f6e56" fill-opacity="0.45"/><circle cx="284.5" cy="47.9" r="1.10" fill="#0f6e56" fill-opacity="0.35"/><circle cx="163.2" cy="66.6" r="1.10" fill="#0f6e56" fill-opacity="0.74"/><circle cx="239.8" cy="52.6" r="1.10" fill="#0f6e56" fill-opacity="0.49"/><circle cx="205.1" cy="60.1" r="1.10" fill="#0f6e56" fill-opacity="0.61"/><circle cx="258.2" cy="87.8" r="1.10" fill="#0f6e56" fill-opacity="0.43"/><circle cx="225.5" cy="71.6" r="1.10" fill="#0f6e56" fill-opacity="0.54"/><circle cx="163.9" cy="111.8" r="1.10" fill="#0f6e56" fill-opacity="0.74"/><circle cx="279.9" cy="18.3" r="1.10" fill="#0f6e56" fill-opacity="0.36"/><circle cx="225.4" cy="41.6" r="1.10" fill="#0f6e56" fill-opacity="0.54"/><circle cx="284.7" cy="40.2" r="1.10" fill="#0f6e56" fill-opacity="0.35"/><circle cx="294.2" cy="15.2" r="1.10" fill="#0f6e56" fill-opacity="0.32"/><circle cx="193.9" cy="72.2" r="1.10" fill="#0f6e56" fill-opacity="0.64"/><circle cx="247.1" cy="62.3" r="1.10" fill="#0f6e56" fill-opacity="0.47"/><circle cx="286.0" cy="35.8" r="1.10" fill="#0f6e56" fill-opacity="0.35"/><circle cx="185.7" cy="94.6" r="1.10" fill="#0f6e56" fill-opacity="0.67"/></svg>
