<svg xmlns="http://www.w3.org/2000/svg" viewBox="0 0 320 140" role="img" aria-label="Bacteria signalling to each other with small molecules"><rect width="320" height="140" rx="10" fill="#f2f6fd"/><rect x="265.6" y="104.8" width="26" height="11" rx="5.5" fill="none" stroke="#004fcc" stroke-opacity="0.7" stroke-width="1.4" transform="rotate(20 278.6 110.3)"/><rect x="31.7" y="27.1" width="26" height="11" rx="5.5" fill="none" stroke="#004fcc" stroke-opacity="0.7" stroke-width="1.4" transform="rotate(61 44.7 32.6)"/><rect x="234.2" y="85.7" width="26" height="11" rx="5.5" fill="none" stroke="#004fcc" stroke-opacity="0.7" stroke-width="1.4" transform="rotate(6 247.2 91.2)"/><rect x="191.1" y="47.2" width="26" height="11" rx="5.5" fill="none" stroke="#004fcc" stroke-opacity="0.7" stroke-width="1.4" transform="rotate(81 204.1 52.7)"/><rect x="129.0" y="54.9" width="26" height="11" rx="5.5" fill="none" stroke="#004fcc" stroke-opacity="0.7" stroke-width="1.4" transform="rotate(138 142.0 60.4)"/><rect x="205.0" y="109.0" width="26" height="11" rx="5.5" fill="none" stroke="#004fcc" stroke-opacity="0.7" stroke-width="1.4" transform="rotate(133 218.0 114.5)"/><rect x="263.8" y="68.5" width="26" height="11" rx="5.5" fill="none" stroke="#004fcc" stroke-opacity="0.7" stroke-width="1.4" transform="rotate(162 276.8 74.0)"/><rect x="115.8" y="99.8" width="26" height="11" rx="5.5" fill="none" stroke="#004fcc" stroke-opacity="0.7" stroke-width="1.4" transform="rotate(136 128.8 105.3)"/><rect x="78.4" y="21.6" width="26" height="11" rx="5.5" fill="none" stroke="#004fcc" stroke-opacity="0.7" stroke-width="1.4" transform="rotate(155 91.4 27.1)"/><rect x="149.7" y="109.4" width="26" height="11" rx="5.5" fill="none" stroke="#004fcc" stroke-opacity="0.7" stroke-width="1.4" transform="rotate(127 162.7 114.9)"/><rect x="267.1" y="34.0" width="26" height="11" rx="5.5" fill="none" stroke="#004fcc" stroke-opacity="0.7" stroke-width="1.4" transform="rotate(85 280.1 39.5)"/><rect x="75.9" y="98.3" width="26" height="11" rx="5.5" fill="none" stroke="#004fcc" stroke-opacity="0.7" stroke-width="1.4" transform="rotate(41 88.9 103.8)"/><rect x="44.6" y="66.5" width="26" height="11" rx="5.5" fill="none" stroke="#004fcc" stroke-opacity="0.7" stroke-width="1.4" transform="rotate(119 57.6 72.0)"/><rect x="38.6" y="105.4" width="26" height="11" rx="5.5" fill="none" stroke="#004fcc" stroke-opacity="0.7" stroke-width="1.4" transform="rotate(57 51.6 110.9)"/><rect x="228.5" y="33.6" width="26" height="11" rx="5.5" fill="none" stroke="#004fcc" stroke-opacity="0.7" stroke-width="1.4" transform="rotate(18 241.5 39.1)"/><rect x="177.0" y="86.3" width="26" height="11" rx="5.5" fill="none" stroke="#004fcc" stroke-opacity="0.7" stroke-width="1.4" transform="rotate(81 190.0 91.8)"/><circle cx="105.4" cy="63.4" r="0.90" fill="#004fcc" fill-opacity="0.36"/><circle cx="279.4" cy="51.7" r="0.90" fill="#004fcc" fill-opacity="0.46"/><circle cx="74.0" cy="105.0" r="0.90" fill="#004fcc" fill-opacity="0.48"/><circle cx="120.1" cy="33.3" r="0.90" fill="#004fcc" fill-opacity="0.31"/><circle cx="221.5" cy="42.6" r="0.90" fill="#004fcc" fill-opacity="0.50"/><circle cx="57.0" cy="32.2" r="0.90" fill="#004fcc" fill-opacity="0.33"/><circle cx="243.5" cy="53.9" r="0.90" fill="#004fcc" fill-opacity="0.53"/><circle cx="88.4" cy="115.7" r="0.90" fill="#004fcc" fill-opacity="0.40"/><circle cx="288.3" cy="125.7" r="0.90" fill="#004fcc" fill-opacity="0.43"/><circle cx="248.5" cy="113.0" r="0.90" fill="#004fcc" fill-opacity="0.28"/><circle cx="226.9" cy="115.9" r="0.90" fill="#004fcc" fill-opacity="0.48"/><circle cx="235.4" cy="54.5" r="0.90" fill="#004fcc" fill-opacity="0.47"/><circle cx="281.7" cy="93.2" r="0.90" fill="#004fcc" fill-opacity="0.53"/><circle cx="17.8" cy="108.5" r="0.90" fill="#004fcc" fill-opacity="0.45"/><circle cx="13.3" cy="15.0" r="0.90" fill="#004fcc" fill-opacity="0.57"/><circle cx="167.3" cy="117.1" r="0.90" fill="#004fcc" fill-opacity="0.43"/><circle cx="223.2" cy="50.8" r="0.90" fill="#004fcc" fill-opacity="0.38"/><circle cx="290.9" cy="97.9" r="0.90" fill="#004fcc" fill-opacity="0.39"/><circle cx="195.0" cy="35.4" r="0.90" fill="#004fcc" fill-opacity="0.26"/><circle cx="276.6" cy="53.1" r="0.90" fill="#004fcc" fill-opacity="0.47"/><circle cx="254.5" cy="45.6" r="0.90" fill="#004fcc" fill-opacity="0.35"/><circle cx="78.8" cy="131.6" r="0.90" fill="#004fcc" fill-opacity="0.50"/><circle cx="120.4" cy="101.2" r="0.90" fill="#004fcc" fill-opacity="0.39"/><circle cx="253.9" cy="54.1" r="0.90" fill="#004fcc" fill-opacity="0.37"/><circle cx="197.3" cy="46.6" r="0.90" fill="#004fcc" fill-opacity="0.37"/><circle cx="74.3" cy="67.7" r="0.90" fill="#004fcc" fill-opacity="0.49"/><circle cx="300.0" cy="116.3" r="0.90" fill="#004fcc" fill-opacity="0.50"/><circle cx="149.4" cy="131.4" r="0.90" fill="#004fcc" fill-opacity="0.41"/><circle cx="77.7" cy="105.4" r="0.90" fill="#004fcc" fill-opacity="0.58"/><circle cx="77.4" cy="99.1" r="0.90" fill="#004fcc" fill-opacity="0.54"/><circle cx="149.2" cy="105.6" r="0.90" fill="#004fcc" fill-opacity="0.44"/><circle cx="234.6" cy="83.7" r="0.90" fill="#004fcc" fill-opacity="0.54"/><circle cx="186.9" cy="47.7" r="0.90" fill="#004fcc" fill-opacity="0.53"/><circle cx="251.2" cy="78.5" r="0.90" fill="#004fcc" fill-opacity="0.57"/><circle cx="46.8" cy="50.8" r="0.90" fill="#004fcc" fill-opacity="0.48"/><circle cx="262.8" cy="46.5" r="0.90" fill="#004fcc" fill-opacity="0.43"/><circle cx="238.6" cy="45.9" r="0.90" fill="#004fcc" fill-opacity="0.40"/><circle cx="232.3" cy="34.5" r="0.90" fill="#004fcc" fill-opacity="0.50"/><circle cx="104.2" cy="22.8" r="0.90" fill="#004fcc" fill-opacity="0.33"/><circle cx="92.4" cy="87.0" r="0.90" fill="#004fcc" fill-opacity="0.45"/><circle cx="154.4" cy="28.8" r="0.90" fill="#004fcc" fill-opacity="0.38"/><circle cx="206.8" cy="123.5" r="0.90" fill="#004fcc" fill-opacity="0.27"/><circle cx="118.9" cy="15.6" r="0.90" fill="#004fcc" fill-opacity="0.50"/><circle cx="175.2" cy="109.7" r="0.90" fill="#004fcc" fill-opacity="0.44"/><circle cx="249.0" cy="102.4" r="0.90" fill="#004fcc" fill-opacity="0.47"/><circle cx="73.9" cy="35.3" r="0.90" fill="#004fcc" fill-opacity="0.38"/><circle cx="292.3" cy="101.2" r="0.90" fill="#004fcc" fill-opacity="0.41"/><circle cx="228.9" cy="89.8" r="0.90" fill="#004fcc" fill-opacity="0.26"/><circle cx="286.6" cy="67.4" r="0.90" fill="#004fcc" fill-opacity="0.56"/><circle cx="180.5" cy="72.3" r="0.90" fill="#004fcc" fill-opacity="0.45"/><circle cx="264.1" cy="67.0" r="0.90" fill="#004fcc" fill-opacity="0.42"/><circle cx="186.6" cy="62.8" r="0.90" fill="#004fcc" fill-opacity="0.49"/><circle cx="180.7" cy="93.8" r="0.90" fill="#004fcc" fill-opacity="0.32"/><circle cx="229.8" cy="115.2" r="0.90" fill="#004fcc" fill-opacity="0.57"/><circle cx="242.9" cy="82.7" r="0.90" fill="#004fcc" fill-opacity="0.37"/><circle cx="111.1" cy="8.1" r="0.90" fill="#004fcc" fill-opacity="0.41"/><circle cx="248.4" cy="71.1" r="0.90" fill="#004fcc" fill-opacity="0.58"/><circle cx="57.0" cy="90.7" r="0.90" fill="#004fcc" fill-opacity="0.47"/><circle cx="168.7" cy="59.1" r="0.90" fill="#004fcc" fill-opacity="0.49"/><circle cx="157.2" cy="61.4" r="0.90" fill="#004fcc" fill-opacity="0.45"/><circle cx="262.1" cy="125.3" r="0.90" fill="#004fcc" fill-opacity="0.40"/><circle cx="138.9" cy="115.1" r="0.90" fill="#004fcc" fill-opacity="0.30"/><circle cx="150.8" cy="148.3" r="0.90" fill="#004fcc" fill-opacity="0.48"/><circle cx="149.6" cy="96.1" r="0.90" fill="#004fcc" fill-opacity="0.39"/><circle cx="230.8" cy="79.9" r="0.90" fill="#004fcc" fill-opacity="0.55"/><circle cx="144.8" cy="51.3" r="0.90" fill="#004fcc" fill-opacity="0.47"/><circle cx="119.3" cy="97.3" r="0.90" fill="#004fcc" fill-opacity="0.43"/><circle cx="63.0" cy="27.7" r="0.90" fill="#004fcc" fill-opacity="0.29"/><circle cx="47.8" cy="84.5" r="0.90" fill="#004fcc" fill-opacity="0.37"/><circle cx="97.8" cy="119.1" r="0.90" fill="#004fcc" fill-opacity="0.40"/><circle cx="159.3" cy="97.9" r="0.90" fill="#004fcc" fill-opacity="0.60"/><circle cx="286.9" cy="69.2" r="0.90" fill="#004fcc" fill-opacity="0.36"/><circle cx="204.5" cy="30.0" r="0.90" fill="#004fcc" fill-opacity="0.55"/><circle cx="205.2" cy="130.8" r="0.90" fill="#004fcc" fill-opacity="0.53"/><circle cx="120.6" cy="113.1" r="0.90" fill="#004fcc" fill-opacity="0.53"/><circle cx="274.5" cy="68.1" r="0.90" fill="#004fcc" fill-opacity="0.50"/><circle cx="287.1" cy="32.0" r="0.90" fill="#004fcc" fill-opacity="0.58"/><circle cx="127.7" cy="107.8" r="0.90" fill="#004fcc" fill-opacity="0.47"/><circle cx="256.2" cy="108.9" r="0.90" fill="#004fcc" fill-opacity="0.59"/><circle cx="69.5" cy="111.4" r="0.90" fill="#004fcc" fill-opacity="0.28"/><circle cx="232.9" cy="111.5" r="0.90" fill="#004fcc" fill-opacity="0.29"/><circle cx="203.2" cy="132.6" r="0.90" fill="#004fcc" fill-opacity="0.57"/><circle cx="62.0" cy="90.4" r="0.90" fill="#004fcc" fill-opacity="0.46"/><circle cx="153.1" cy="116.8" r="0.90" fill="#004fcc" fill-opacity="0.57"/><circle cx="108.6" cy="117.2" r="0.90" fill="#004fcc" fill-opacity="0.30"/><circle cx="256.1" cy="111.0" r="0.90" fill="#004fcc" fill-opacity="0.30"/><circle cx="89.1" cy="112.8" r="0.90" fill="#004fcc" fill-opacity="0.33"/><circle cx="32.5" cy="52.9" r="0.90" fill="#004fcc" fill-opacity="0.38"/><circle cx="59.0" cy="38.6" r="0.90" fill="#004fcc" fill-opacity="0.41"/><circle cx="102.6" cy="39.5" r="0.90" fill="#004fcc" fill-opacity="0.43"/><circle cx="186.2" cy="37.8" r="0.90" fill="#004fcc" fill-opacity="0.39"/><circle cx="19.5" cy="52.9" r="0.90" fill="#004fcc" fill-opacity="0.42"/><circle cx="305.7" cy="55.9" r="0.90" fill="#004fcc" fill-opacity="0.43"/><circle cx="205.1" cy="90.8" r="0.90" fill="#004fcc" fill-opacity="0.54"/><circle cx="225.5" cy="44.0" r="0.90" fill="#004fcc" fill-opacity="0.56"/><circle cx="264.3" cy="38.5" r="0.90" fill="#004fcc" fill-opacity="0.29"/><circle cx="224.2" cy="94.4" r="0.90" fill="#004fcc" fill-opacity="0.25"/><circle cx="196.6" cy="39.3" r="0.90" fill="#004fcc" fill-opacity="0.33"/><circle cx="298.2" cy="123.1" r="0.90" fill="#004fcc" fill-opacity="0.59"/><circle cx="268.1" cy="47.8" r="0.90" fill="#004fcc" fill-opacity="0.56"/><circle cx="145.6" cy="108.5" r="0.90" fill="#004fcc" fill-opacity="0.49"/><circle cx="56.6" cy="36.4" r="0.90" fill="#004fcc" fill-opacity="0.44"/><circle cx="271.3" cy="94.4" r="0.90" fill="#004fcc" fill-opacity="0.56"/><circle cx="123.6" cy="79.6" r="0.90" fill="#004fcc" fill-opacity="0.25"/><circle cx="206.9" cy="43.8" r="0.90" fill="#004fcc" fill-opacity="0.47"/><circle cx="43.7" cy="95.0" r="0.90" fill="#004fcc" fill-opacity="0.48"/><circle cx="27.7" cy="70.7" r="0.90" fill="#004fcc" fill-opacity="0.57"/><circle cx="194.6" cy="112.9" r="0.90" fill="#004fcc" fill-opacity="0.54"/><circle cx="130.0" cy="72.0" r="0.90" fill="#004fcc" fill-opacity="0.35"/><circle cx="62.0" cy="124.2" r="0.90" fill="#004fcc" fill-opacity="0.30"/><circle cx="263.8" cy="32.8" r="0.90" fill="#004fcc" fill-opacity="0.42"/><circle cx="126.3" cy="108.6" r="0.90" fill="#004fcc" fill-opacity="0.42"/><circle cx="87.5" cy="15.5" r="0.90" fill="#004fcc" fill-opacity="0.48"/><circle cx="251.5" cy="90.2" r="0.90" fill="#004fcc" fill-opacity="0.51"/><circle cx="266.9" cy="61.2" r="0.90" fill="#004fcc" fill-opacity="0.47"/><circle cx="83.0" cy="-0.4" r="0.90" fill="#004fcc" fill-opacity="0.42"/><circle cx="46.6" cy="44.2" r="0.90" fill="#004fcc" fill-opacity="0.30"/><circle cx="319.6" cy="49.2" r="0.90" fill="#004fcc" fill-opacity="0.32"/><circle cx="225.5" cy="40.5" r="0.90" fill="#004fcc" fill-opacity="0.52"/><circle cx="275.0" cy="87.4" r="0.90" fill="#004fcc" fill-opacity="0.56"/><circle cx="261.9" cy="70.2" r="0.90" fill="#004fcc" fill-opacity="0.36"/><circle cx="114.2" cy="-4.3" r="0.90" fill="#004fcc" fill-opacity="0.43"/><circle cx="243.0" cy="68.5" r="0.90" fill="#004fcc" fill-opacity="0.41"/><circle cx="192.6" cy="39.4" r="0.90" fill="#004fcc" fill-opacity="0.51"/><circle cx="266.7" cy="107.4" r="0.90" fill="#004fcc" fill-opacity="0.39"/><circle cx="256.0" cy="83.8" r="0.90" fill="#004fcc" fill-opacity="0.30"/><circle cx="205.6" cy="118.2" r="0.90" fill="#004fcc" fill-opacity="0.37"/><circle cx="170.2" cy="74.9" r="0.90" fill="#004fcc" fill-opacity="0.47"/><circle cx="210.1" cy="64.1" r="0.90" fill="#004fcc" fill-opacity="0.37"/><circle cx="255.9" cy="107.1" r="0.90" fill="#004fcc" fill-opacity="0.46"/><circle cx="183.0" cy="81.0" r="0.90" fill="#004fcc" fill-opacity="0.56"/><circle cx="183.6" cy="92.3" r="0.90" fill="#004fcc" fill-opacity="0.44"/><circle cx="194.2" cy="120.7" r="0.90" fill="#004fcc" fill-opacity="0.60"/><circle cx="34.1" cy="55.6" r="0.90" fill="#004fcc" fill-opacity="0.34"/><circle cx="268.6" cy="41.7" r="0.90" fill="#004fcc" fill-opacity="0.50"/><circle cx="149.9" cy="107.9" r="0.90" fill="#004fcc" fill-opacity="0.30"/><circle cx="137.7" cy="37.4" r="0.90" fill="#004fcc" fill-opacity="0.47"/><circle cx="269.3" cy="22.5" r="0.90" fill="#004fcc" fill-opacity="0.48"/><circle cx="192.8" cy="128.7" r="0.90" fill="#004fcc" fill-opacity="0.45"/><circle cx="132.5" cy="117.5" r="0.90" fill="#004fcc" fill-opacity="0.50"/><circle cx="250.5" cy="35.0" r="0.90" fill="#004fcc" fill-opacity="0.33"/><circle cx="256.0" cy="65.5" r="0.90" fill="#004fcc" fill-opacity="0.34"/><circle cx="110.7" cy="120.0" r="0.90" fill="#004fcc" fill-opacity="0.40"/><circle cx="221.2" cy="55.5" r="0.90" fill="#004fcc" fill-opacity="0.42"/><circle cx="68.5" cy="75.9" r="0.90" fill="#004fcc" fill-opacity="0.43"/><circle cx="230.8" cy="78.8" r="0.90" fill="#004fcc" fill-opacity="0.44"/><circle cx="252.0" cy="129.2" r="0.90" fill="#004fcc" fill-opacity="0.43"/><circle cx="192.7" cy="65.8" r="0.90" fill="#004fcc" fill-opacity="0.38"/><circle cx="187.0" cy="61.1" r="0.90" fill="#004fcc" fill-opacity="0.33"/><circle cx="299.4" cy="114.2" r="0.90" fill="#004fcc" fill-opacity="0.26"/><circle cx="153.6" cy="64.1" r="0.90" fill="#004fcc" fill-opacity="0.30"/><circle cx="181.8" cy="107.7" r="0.90" fill="#004fcc" fill-opacity="0.29"/><circle cx="243.8" cy="78.9" r="0.90" fill="#004fcc" fill-opacity="0.26"/><circle cx="74.8" cy="30.0" r="0.90" fill="#004fcc" fill-opacity="0.58"/><circle cx="98.0" cy="110.2" r="0.90" fill="#004fcc" fill-opacity="0.38"/><circle cx="67.2" cy="129.0" r="0.90" fill="#004fcc" fill-opacity="0.58"/><circle cx="70.9" cy="25.9" r="0.90" fill="#004fcc" fill-opacity="0.59"/><circle cx="318.0" cy="121.6" r="0.90" fill="#004fcc" fill-opacity="0.40"/><circle cx="245.0" cy="102.9" r="0.90" fill="#004fcc" fill-opacity="0.27"/><circle cx="231.0" cy="50.1" r="0.90" fill="#004fcc" fill-opacity="0.43"/><circle cx="59.7" cy="128.8" r="0.90" fill="#004fcc" fill-opacity="0.46"/><circle cx="266.8" cy="102.5" r="0.90" fill="#004fcc" fill-opacity="0.59"/><circle cx="101.5" cy="95.2" r="0.90" fill="#004fcc" fill-opacity="0.26"/><circle cx="109.7" cy="96.9" r="0.90" fill="#004fcc" fill-opacity="0.58"/><circle cx="157.7" cy="129.5" r="0.90" fill="#004fcc" fill-opacity="0.46"/><circle cx="248.6" cy="120.3" r="0.90" fill="#004fcc" fill-opacity="0.44"/><circle cx="178.8" cy="52.7" r="0.90" fill="#004fcc" fill-opacity="0.35"/><circle cx="137.9" cy="108.4" r="0.90" fill="#004fcc" fill-opacity="0.43"/><circle cx="76.8" cy="100.2" r="0.90" fill="#004fcc" fill-opacity="0.30"/><circle cx="109.1" cy="110.8" r="0.90" fill="#004fcc" fill-opacity="0.59"/><circle cx="193.8" cy="124.5" r="0.90" fill="#004fcc" fill-opacity="0.58"/><circle cx="247.1" cy="48.3" r="0.90" fill="#004fcc" fill-opacity="0.46"/><circle cx="141.9" cy="74.8" r="0.90" fill="#004fcc" fill-opacity="0.32"/><circle cx="131.5" cy="48.1" r="0.90" fill="#004fcc" fill-opacity="0.45"/><circle cx="101.6" cy="52.0" r="0.90" fill="#004fcc" fill-opacity="0.40"/><circle cx="122.1" cy="114.2" r="0.90" fill="#004fcc" fill-opacity="0.47"/><circle cx="63.1" cy="35.9" r="0.90" fill="#004fcc" fill-opacity="0.36"/><circle cx="307.2" cy="105.3" r="0.90" fill="#004fcc" fill-opacity="0.44"/><circle cx="88.2" cy="13.8" r="0.90" fill="#004fcc" fill-opacity="0.38"/><circle cx="258.3" cy="28.1" r="0.90" fill="#004fcc" fill-opacity="0.34"/><circle cx="219.4" cy="67.3" r="0.90" fill="#004fcc" fill-opacity="0.40"/><circle cx="128.5" cy="86.7" r="0.90" fill="#004fcc" fill-opacity="0.48"/><circle cx="39.9" cy="54.4" r="0.90" fill="#004fcc" fill-opacity="0.41"/><circle cx="35.2" cy="78.9" r="0.90" fill="#004fcc" fill-opacity="0.58"/><circle cx="102.3" cy="126.6" r="0.90" fill="#004fcc" fill-opacity="0.33"/><circle cx="201.5" cy="125.2" r="0.90" fill="#004fcc" fill-opacity="0.42"/><circle cx="183.3" cy="98.1" r="0.90" fill="#004fcc" fill-opacity="0.39"/><circle cx="77.7" cy="2.2" r="0.90" fill="#004fcc" fill-opacity="0.48"/><circle cx="72.2" cy="82.8" r="0.90" fill="#004fcc" fill-opacity="0.25"/><circle cx="82.3" cy="117.2" r="0.90" fill="#004fcc" fill-opacity="0.36"/><circle cx="47.5" cy="91.7" r="0.90" fill="#004fcc" fill-opacity="0.28"/><circle cx="160.3" cy="112.7" r="0.90" fill="#004fcc" fill-opacity="0.57"/><circle cx="227.3" cy="60.1" r="0.90" fill="#004fcc" fill-opacity="0.36"/><circle cx="136.8" cy="37.6" r="0.90" fill="#004fcc" fill-opacity="0.27"/><circle cx="258.7" cy="21.0" r="0.90" fill="#004fcc" fill-opacity="0.25"/><circle cx="175.8" cy="75.0" r="0.90" fill="#004fcc" fill-opacity="0.45"/><circle cx="123.9" cy="113.7" r="0.90" fill="#004fcc" fill-opacity="0.52"/><circle cx="36.5" cy="62.4" r="0.90" fill="#004fcc" fill-opacity="0.50"/><circle cx="243.6" cy="48.4" r="0.90" fill="#004fcc" fill-opacity="0.38"/><circle cx="97.8" cy="90.8" r="0.90" fill="#004fcc" fill-opacity="0.59"/><circle cx="203.3" cy="94.6" r="0.90" fill="#004fcc" fill-opacity="0.47"/><circle cx="258.6" cy="63.1" r="0.90" fill="#004fcc" fill-opacity="0.33"/><circle cx="104.7" cy="48.7" r="0.90" fill="#004fcc" fill-opacity="0.39"/><circle cx="188.7" cy="72.9" r="0.90" fill="#004fcc" fill-opacity="0.48"/><circle cx="281.9" cy="85.1" r="0.90" fill="#004fcc" fill-opacity="0.42"/><circle cx="286.4" cy="80.7" r="0.90" fill="#004fcc" fill-opacity="0.30"/><circle cx="262.2" cy="60.0" r="0.90" fill="#004fcc" fill-opacity="0.41"/><circle cx="276.3" cy="64.5" r="0.90" fill="#004fcc" fill-opacity="0.35"/><circle cx="264.5" cy="149.6" r="0.90" fill="#004fcc" fill-opacity="0.45"/><circle cx="181.8" cy="99.4" r="0.90" fill="#004fcc" fill-opacity="0.28"/><circle cx="257.4" cy="24.0" r="0.90" fill="#004fcc" fill-opacity="0.41"/><circle cx="243.5" cy="125.9" r="0.90" fill="#004fcc" fill-opacity="0.55"/><circle cx="237.2" cy="54.6" r="0.90" fill="#004fcc" fill-opacity="0.35"/><circle cx="252.8" cy="102.5" r="0.90" fill="#004fcc" fill-opacity="0.45"/><circle cx="233.4" cy="82.8" r="0.90" fill="#004fcc" fill-opacity="0.41"/><circle cx="285.0" cy="63.7" r="0.90" fill="#004fcc" fill-opacity="0.49"/><circle cx="243.0" cy="50.0" r="0.90" fill="#004fcc" fill-opacity="0.47"/><circle cx="168.7" cy="97.9" r="0.90" fill="#004fcc" fill-opacity="0.48"/><circle cx="305.6" cy="79.2" r="0.90" fill="#004fcc" fill-opacity="0.29"/><circle cx="176.9" cy="80.6" r="0.90" fill="#004fcc" fill-opacity="0.28"/></svg>
